<?xml version="1.0" encoding="UTF-8" standalone="no"?>
<!-- Created with Inkscape (http://www.inkscape.org/) -->

<svg
   xmlns:dc="http://purl.org/dc/elements/1.1/"
   xmlns:cc="http://creativecommons.org/ns#"
   xmlns:rdf="http://www.w3.org/1999/02/22-rdf-syntax-ns#"
   xmlns:svg="http://www.w3.org/2000/svg"
   xmlns="http://www.w3.org/2000/svg"
   version="1.1"
   width="316"
   height="256"
   id="svg7861">
  <defs
     id="defs7863">
    <marker
       refX="0"
       refY="0"
       orient="auto"
       id="Arrow2Lend"
       style="overflow:visible">
      <path
         d="M 8.7185878,4.0337352 -2.2072895,0.01601326 8.7185884,-4.0017078 c -1.7454984,2.3720609 -1.7354408,5.6174519 -6e-7,8.035443 z"
         transform="matrix(-1.1,0,0,-1.1,-1.1,0)"
         id="path4148"
         style="fill-rule:evenodd;stroke-width:0.625;stroke-linejoin:round" />
    </marker>
    <marker
       refX="0"
       refY="0"
       orient="auto"
       id="marker7817"
       style="overflow:visible">
      <path
         d="M 8.7185878,4.0337352 -2.2072895,0.01601326 8.7185884,-4.0017078 c -1.7454984,2.3720609 -1.7354408,5.6174519 -6e-7,8.035443 z"
         transform="matrix(-1.1,0,0,-1.1,-1.1,0)"
         id="path7819"
         style="fill-rule:evenodd;stroke-width:0.625;stroke-linejoin:round" />
    </marker>
    <marker
       refX="0"
       refY="0"
       orient="auto"
       id="marker7821"
       style="overflow:visible">
      <path
         d="M 8.7185878,4.0337352 -2.2072895,0.01601326 8.7185884,-4.0017078 c -1.7454984,2.3720609 -1.7354408,5.6174519 -6e-7,8.035443 z"
         transform="matrix(-1.1,0,0,-1.1,-1.1,0)"
         id="path7823"
         style="fill-rule:evenodd;stroke-width:0.625;stroke-linejoin:round" />
    </marker>
    <marker
       refX="0"
       refY="0"
       orient="auto"
       id="Arrow2Lend-9"
       style="overflow:visible">
      <path
         d="M 8.7185878,4.0337352 -2.2072895,0.01601326 8.7185884,-4.0017078 c -1.7454984,2.3720609 -1.7354408,5.6174519 -6e-7,8.035443 z"
         transform="matrix(-1.1,0,0,-1.1,-1.1,0)"
         id="path4148-2"
         style="fill-rule:evenodd;stroke-width:0.625;stroke-linejoin:round" />
    </marker>
    <marker
       refX="0"
       refY="0"
       orient="auto"
       id="marker8114"
       style="overflow:visible">
      <path
         d="M 8.7185878,4.0337352 -2.2072895,0.01601326 8.7185884,-4.0017078 c -1.7454984,2.3720609 -1.7354408,5.6174519 -6e-7,8.035443 z"
         transform="matrix(-1.1,0,0,-1.1,-1.1,0)"
         id="path8116"
         style="fill-rule:evenodd;stroke-width:0.625;stroke-linejoin:round" />
    </marker>
    <marker
       refX="0"
       refY="0"
       orient="auto"
       id="marker8118"
       style="overflow:visible">
      <path
         d="M 8.7185878,4.0337352 -2.2072895,0.01601326 8.7185884,-4.0017078 c -1.7454984,2.3720609 -1.7354408,5.6174519 -6e-7,8.035443 z"
         transform="matrix(-1.1,0,0,-1.1,-1.1,0)"
         id="path8120"
         style="fill-rule:evenodd;stroke-width:0.625;stroke-linejoin:round" />
    </marker>
  </defs>
  <metadata
     id="metadata7866">
    <rdf:RDF>
      <cc:Work
         rdf:about="">
        <dc:format>image/svg+xml</dc:format>
        <dc:type
           rdf:resource="http://purl.org/dc/dcmitype/StillImage" />
        <dc:title></dc:title>
      </cc:Work>
    </rdf:RDF>
  </metadata>
  <g
     transform="translate(-111.875,-460.9375)"
     id="layer1">
    <g
       transform="translate(27.366056,174.06192)"
       id="g7669">
      <path
         d="m 280,342.36218 100,0 0,20 -100,0 z"
         id="rect2991-56-3-1-1-5-6-4"
         style="fill:#000000;fill-opacity:0.11764706;stroke:#000000;stroke-width:0.99999994;stroke-opacity:1" />
      <path
         d="m 280,362.36218 100,0 0,20 -100,0 z"
         id="rect2991-56-3-1-1-5-9-3-3"
         style="fill:#000000;fill-opacity:0.11764706;stroke:#000000;stroke-width:0.99999994;stroke-opacity:1" />
      <path
         d="m 280,402.36218 100,0 0,20 -100,0 z"
         id="rect2991-56-3-1-1-5-8-4-7"
         style="fill:#000000;fill-opacity:0.11764706;stroke:#000000;stroke-width:0.99999994;stroke-opacity:1" />
      <path
         d="m 275,467.36218 110,0 0,40 -110,0 z"
         id="rect2991-56-3-1-1-5-8-3-3"
         style="fill:#000000;fill-opacity:0.11764706;stroke:#000000;stroke-width:0.99999988;stroke-opacity:1" />
      <path
         d="m 105,382.36218 100,0 0,60 -100,0 z"
         id="rect2991-56-3-9-6"
         style="fill:#000000;fill-opacity:0.05882353;stroke:#000000;stroke-width:1;stroke-opacity:1" />
      <g
         id="text2985-50-3-7-8"
         style="font-size:40px;font-style:normal;font-weight:normal;line-height:125%;letter-spacing:0px;word-spacing:0px;fill:#000000;fill-opacity:1;stroke:none;font-family:Sans">
        <path
           d="m 130.7793,409.51257 0.84765,0 1.44922,2.16797 1.45703,-2.16797 0.84766,0 -1.875,2.80078 2,3.03125 -0.84766,0 -1.64062,-2.48046 -1.65235,2.48046 -0.85156,0 2.08203,-3.11328 -1.8164,-2.71875"
           id="path12537"
           style="font-size:8px" />
        <path
           d="m 136.54492,409.51257 0.78906,0 0,5.83203 -0.78906,0 0,-5.83203"
           id="path12539"
           style="font-size:8px" />
        <path
           d="m 142.40039,409.70398 0,0.76953 c -0.29948,-0.14322 -0.58203,-0.24999 -0.84766,-0.32031 -0.26562,-0.0703 -0.52213,-0.10547 -0.76953,-0.10547 -0.42969,0 -0.76172,0.0833 -0.99609,0.25 -0.23177,0.16667 -0.34766,0.40365 -0.34766,0.71094 0,0.25781 0.0768,0.45313 0.23047,0.58593 0.15625,0.13022 0.45052,0.23569 0.88281,0.31641 l 0.47657,0.0977 c 0.58854,0.11198 1.02213,0.3099 1.30078,0.59375 0.28124,0.28125 0.42187,0.65885 0.42187,1.13281 0,0.5651 -0.19011,0.99349 -0.57031,1.28516 -0.37761,0.29166 -0.93229,0.4375 -1.66406,0.4375 -0.27605,0 -0.57032,-0.0312 -0.88281,-0.0937 -0.3099,-0.0625 -0.63152,-0.15495 -0.96485,-0.27735 l 0,-0.8125 c 0.32031,0.17969 0.63412,0.31511 0.94141,0.40625 0.30729,0.0911 0.60937,0.13672 0.90625,0.13672 0.45052,0 0.79817,-0.0885 1.04297,-0.26562 0.24478,-0.17709 0.36718,-0.42969 0.36718,-0.75782 0,-0.28645 -0.0885,-0.51041 -0.26562,-0.67187 -0.17448,-0.16146 -0.46224,-0.28255 -0.86328,-0.36328 l -0.48047,-0.0937 c -0.58854,-0.11719 -1.01432,-0.30078 -1.27734,-0.55078 -0.26303,-0.25 -0.39454,-0.59766 -0.39454,-1.04297 0,-0.51562 0.18099,-0.92187 0.54297,-1.21875 0.36459,-0.29687 0.86589,-0.44531 1.50391,-0.44532 0.27343,10e-6 0.55208,0.0247 0.83594,0.0742 0.28385,0.0495 0.57421,0.12371 0.87109,0.22266"
           id="path12541"
           style="font-size:8px" />
        <path
           d="m 143.98242,409.51257 3.35156,0 0,0.66407 -2.5625,0 0,1.71875 2.3125,0 0,0.66406 -2.3125,0 0,2.78515 -0.78906,0 0,-5.83203"
           id="path12543"
           style="font-size:8px" />
        <path
           d="m 151.13867,409.51257 0.78906,0 0,2.39063 2.86719,0 0,-2.39063 0.78906,0 0,5.83203 -0.78906,0 0,-2.77734 -2.86719,0 0,2.77734 -0.78906,0 0,-5.83203"
           id="path12545"
           style="font-size:8px" />
        <path
           d="m 160.86523,412.97742 0,0.35156 -3.30468,0 c 0.0312,0.49479 0.17968,0.8724 0.44531,1.13281 0.26823,0.25782 0.64062,0.38672 1.11719,0.38672 0.27604,0 0.54296,-0.0338 0.80078,-0.10156 0.26041,-0.0677 0.51822,-0.16927 0.77344,-0.30469 l 0,0.67969 c -0.25782,0.10937 -0.52214,0.19271 -0.79297,0.25 -0.27084,0.0573 -0.54558,0.0859 -0.82422,0.0859 -0.69792,0 -1.25131,-0.20313 -1.66016,-0.60938 -0.40625,-0.40625 -0.60937,-0.95573 -0.60937,-1.64844 0,-0.71614 0.1927,-1.28385 0.57812,-1.70312 0.38802,-0.42187 0.91016,-0.63281 1.56641,-0.63281 0.58854,0 1.05338,0.1901 1.39453,0.57031 0.34375,0.37761 0.51562,0.89193 0.51562,1.54297 m -0.71875,-0.21094 c -0.005,-0.39323 -0.11588,-0.70703 -0.33203,-0.94141 -0.21354,-0.23437 -0.4974,-0.35156 -0.85156,-0.35156 -0.40104,0 -0.72266,0.11329 -0.96484,0.33984 -0.23959,0.22657 -0.37761,0.54558 -0.41407,0.95704 l 2.5625,-0.004"
           id="path12547"
           style="font-size:8px" />
        <path
           d="m 164.0332,413.14539 c -0.58073,0 -0.98307,0.0664 -1.20703,0.19921 -0.22396,0.13282 -0.33594,0.35938 -0.33594,0.67969 0,0.25521 0.0833,0.45834 0.25,0.60938 0.16927,0.14844 0.39844,0.22265 0.6875,0.22265 0.39844,0 0.71745,-0.14062 0.95704,-0.42187 0.24218,-0.28385 0.36327,-0.66016 0.36328,-1.12891 l 0,-0.16015 -0.71485,0 m 1.4336,-0.29688 0,2.49609 -0.71875,0 0,-0.66406 c -0.16407,0.26563 -0.3685,0.46224 -0.61328,0.58985 -0.2448,0.125 -0.54428,0.1875 -0.89844,0.1875 -0.44792,0 -0.80469,-0.125 -1.07031,-0.375 -0.26303,-0.25261 -0.39454,-0.58985 -0.39454,-1.01172 0,-0.49219 0.16407,-0.86328 0.49219,-1.11328 0.33073,-0.25 0.82292,-0.375 1.47656,-0.375 l 1.00782,0 0,-0.0703 c -1e-5,-0.33072 -0.10938,-0.58593 -0.32813,-0.76562 -0.21615,-0.18229 -0.52083,-0.27344 -0.91406,-0.27344 -0.25,0 -0.49349,0.03 -0.73047,0.0898 -0.23698,0.0599 -0.46484,0.14975 -0.68359,0.26954 l 0,-0.66407 c 0.26302,-0.10155 0.51822,-0.17708 0.76562,-0.22656 0.2474,-0.0521 0.48828,-0.0781 0.72266,-0.0781 0.63281,0 1.10546,0.16406 1.41797,0.49218 0.31249,0.32813 0.46874,0.82553 0.46875,1.49219"
           id="path12549"
           style="font-size:8px" />
        <path
           d="m 169.83008,411.63367 0,-2.36719 0.71875,0 0,6.07812 -0.71875,0 0,-0.65625 c -0.15105,0.26042 -0.34245,0.45443 -0.57422,0.58204 -0.22917,0.125 -0.50521,0.1875 -0.82813,0.1875 -0.52864,0 -0.95963,-0.21094 -1.29296,-0.63282 -0.33073,-0.42187 -0.4961,-0.97656 -0.4961,-1.66406 0,-0.6875 0.16537,-1.24218 0.4961,-1.66406 0.33333,-0.42187 0.76432,-0.63281 1.29296,-0.63281 0.32292,0 0.59896,0.0638 0.82813,0.1914 0.23177,0.12501 0.42317,0.31771 0.57422,0.57813 m -2.44922,1.52734 c 0,0.52865 0.10807,0.94401 0.32422,1.24609 0.21875,0.29948 0.51823,0.44922 0.89844,0.44922 0.3802,0 0.67968,-0.14974 0.89843,-0.44922 0.21875,-0.30208 0.32812,-0.71744 0.32813,-1.24609 -1e-5,-0.52864 -0.10938,-0.9427 -0.32813,-1.24219 -0.21875,-0.30208 -0.51823,-0.45312 -0.89843,-0.45312 -0.38021,0 -0.67969,0.15104 -0.89844,0.45312 -0.21615,0.29949 -0.32422,0.71355 -0.32422,1.24219"
           id="path12551"
           style="font-size:8px" />
        <path
           d="m 175.77148,412.97742 0,0.35156 -3.30468,0 c 0.0312,0.49479 0.17968,0.8724 0.44531,1.13281 0.26823,0.25782 0.64062,0.38672 1.11719,0.38672 0.27604,0 0.54296,-0.0338 0.80078,-0.10156 0.26041,-0.0677 0.51822,-0.16927 0.77344,-0.30469 l 0,0.67969 c -0.25782,0.10937 -0.52214,0.19271 -0.79297,0.25 -0.27084,0.0573 -0.54558,0.0859 -0.82422,0.0859 -0.69792,0 -1.25131,-0.20313 -1.66016,-0.60938 -0.40625,-0.40625 -0.60937,-0.95573 -0.60937,-1.64844 0,-0.71614 0.1927,-1.28385 0.57812,-1.70312 0.38802,-0.42187 0.91016,-0.63281 1.56641,-0.63281 0.58854,0 1.05338,0.1901 1.39453,0.57031 0.34375,0.37761 0.51562,0.89193 0.51562,1.54297 m -0.71875,-0.21094 c -0.005,-0.39323 -0.11588,-0.70703 -0.33203,-0.94141 -0.21354,-0.23437 -0.4974,-0.35156 -0.85156,-0.35156 -0.40104,0 -0.72266,0.11329 -0.96484,0.33984 -0.23959,0.22657 -0.37761,0.54558 -0.41407,0.95704 l 2.5625,-0.004"
           id="path12553"
           style="font-size:8px" />
        <path
           d="m 179.48633,411.64148 c -0.0807,-0.0469 -0.16928,-0.0807 -0.26563,-0.10156 -0.0937,-0.0234 -0.19792,-0.0352 -0.3125,-0.0352 -0.40625,0 -0.71875,0.13282 -0.9375,0.39844 -0.21614,0.26302 -0.32422,0.64193 -0.32422,1.13672 l 0,2.30468 -0.72265,0 0,-4.375 0.72265,0 0,0.67969 c 0.15104,-0.26562 0.34766,-0.46223 0.58985,-0.58984 0.24218,-0.13021 0.53645,-0.19531 0.88281,-0.19531 0.0495,0 0.10416,0.004 0.16406,0.0117 0.0599,0.005 0.1263,0.0143 0.19922,0.0274 l 0.004,0.73828"
           id="path12555"
           style="font-size:8px" />
      </g>
      <g
         id="text2985-2-5-5-4-2-1-8-5-0"
         style="font-size:40px;font-style:normal;font-weight:normal;line-height:125%;letter-spacing:0px;word-spacing:0px;fill:#000000;fill-opacity:1;stroke:none;font-family:Sans">
        <path
           d="m 123.01953,366.53015 0.84766,0 1.44922,2.16797 1.45703,-2.16797 0.84765,0 -1.875,2.80078 2,3.03125 -0.84765,0 -1.64063,-2.48047 -1.65234,2.48047 -0.85156,0 2.08203,-3.11328 -1.81641,-2.71875"
           id="path12558"
           style="font-size:8px;font-variant:normal;font-stretch:normal;text-align:center;text-anchor:middle;font-family:Sans;-inkscape-font-specification:Sans" />
        <path
           d="m 128.78516,366.53015 0.78906,0 0,5.83203 -0.78906,0 0,-5.83203"
           id="path12560"
           style="font-size:8px;font-variant:normal;font-stretch:normal;text-align:center;text-anchor:middle;font-family:Sans;-inkscape-font-specification:Sans" />
        <path
           d="m 134.64062,366.72156 0,0.76953 c -0.29948,-0.14323 -0.58203,-0.25 -0.84765,-0.32031 -0.26563,-0.0703 -0.52214,-0.10547 -0.76953,-0.10547 -0.42969,0 -0.76172,0.0833 -0.9961,0.25 -0.23177,0.16667 -0.34765,0.40365 -0.34765,0.71094 0,0.25781 0.0768,0.45312 0.23047,0.58593 0.15624,0.13021 0.45052,0.23568 0.88281,0.31641 l 0.47656,0.0977 c 0.58854,0.11198 1.02213,0.30989 1.30078,0.59375 0.28125,0.28125 0.42187,0.65885 0.42188,1.13281 -1e-5,0.5651 -0.19011,0.99349 -0.57032,1.28515 -0.3776,0.29167 -0.93229,0.4375 -1.66406,0.4375 -0.27604,0 -0.57031,-0.0312 -0.88281,-0.0937 -0.3099,-0.0625 -0.63151,-0.15494 -0.96484,-0.27734 l 0,-0.8125 c 0.32031,0.17969 0.63411,0.31511 0.9414,0.40625 0.30729,0.0911 0.60938,0.13672 0.90625,0.13672 0.45052,0 0.79818,-0.0885 1.04297,-0.26563 0.24479,-0.17708 0.36718,-0.42968 0.36719,-0.75781 -1e-5,-0.28646 -0.0885,-0.51041 -0.26563,-0.67187 -0.17448,-0.16146 -0.46224,-0.28255 -0.86328,-0.36328 l -0.48047,-0.0937 c -0.58854,-0.11719 -1.01432,-0.30078 -1.27734,-0.55079 -0.26302,-0.24999 -0.39453,-0.59765 -0.39453,-1.04296 0,-0.51563 0.18099,-0.92187 0.54297,-1.21875 0.36458,-0.29687 0.86588,-0.44531 1.5039,-0.44532 0.27344,10e-6 0.55208,0.0247 0.83594,0.0742 0.28385,0.0495 0.57422,0.12371 0.87109,0.22266"
           id="path12562"
           style="font-size:8px;font-variant:normal;font-stretch:normal;text-align:center;text-anchor:middle;font-family:Sans;-inkscape-font-specification:Sans" />
        <path
           d="m 136.22266,366.53015 3.35156,0 0,0.66406 -2.5625,0 0,1.71875 2.3125,0 0,0.66407 -2.3125,0 0,2.78515 -0.78906,0 0,-5.83203"
           id="path12564"
           style="font-size:8px;font-variant:normal;font-stretch:normal;text-align:center;text-anchor:middle;font-family:Sans;-inkscape-font-specification:Sans" />
        <path
           d="m 143.37891,366.53015 0.78906,0 0,2.39063 2.86719,0 0,-2.39063 0.78906,0 0,5.83203 -0.78906,0 0,-2.77734 -2.86719,0 0,2.77734 -0.78906,0 0,-5.83203"
           id="path12566"
           style="font-size:8px;font-variant:normal;font-stretch:normal;text-align:center;text-anchor:middle;font-family:Sans;-inkscape-font-specification:Sans" />
        <path
           d="m 153.10547,369.995 0,0.35156 -3.30469,0 c 0.0312,0.49479 0.17969,0.87239 0.44531,1.13281 0.26823,0.25781 0.64063,0.38672 1.11719,0.38672 0.27604,0 0.54297,-0.0338 0.80078,-0.10156 0.26042,-0.0677 0.51823,-0.16927 0.77344,-0.30469 l 0,0.67969 c -0.25782,0.10937 -0.52214,0.1927 -0.79297,0.25 -0.27084,0.0573 -0.54557,0.0859 -0.82422,0.0859 -0.69792,0 -1.2513,-0.20312 -1.66015,-0.60937 -0.40625,-0.40625 -0.60938,-0.95573 -0.60938,-1.64844 0,-0.71614 0.19271,-1.28385 0.57813,-1.70312 0.38802,-0.42187 0.91015,-0.63281 1.5664,-0.63282 0.58854,10e-6 1.05338,0.19011 1.39453,0.57032 0.34375,0.3776 0.51562,0.89193 0.51563,1.54297 m -0.71875,-0.21094 c -0.005,-0.39323 -0.11589,-0.70703 -0.33203,-0.94141 -0.21355,-0.23437 -0.4974,-0.35156 -0.85157,-0.35156 -0.40104,0 -0.72265,0.11328 -0.96484,0.33984 -0.23958,0.22657 -0.3776,0.54558 -0.41406,0.95703 l 2.5625,-0.004"
           id="path12568"
           style="font-size:8px;font-variant:normal;font-stretch:normal;text-align:center;text-anchor:middle;font-family:Sans;-inkscape-font-specification:Sans" />
        <path
           d="m 156.27344,370.16296 c -0.58073,10e-6 -0.98308,0.0664 -1.20703,0.19922 -0.22396,0.13282 -0.33594,0.35938 -0.33594,0.67969 0,0.25521 0.0833,0.45833 0.25,0.60938 0.16927,0.14843 0.39843,0.22265 0.6875,0.22265 0.39843,0 0.71744,-0.14062 0.95703,-0.42187 0.24218,-0.28386 0.36328,-0.66016 0.36328,-1.12891 l 0,-0.16016 -0.71484,0 m 1.43359,-0.29687 0,2.49609 -0.71875,0 0,-0.66406 c -0.16406,0.26563 -0.36849,0.46224 -0.61328,0.58984 -0.24479,0.125 -0.54427,0.1875 -0.89844,0.1875 -0.44792,0 -0.80469,-0.125 -1.07031,-0.375 -0.26302,-0.2526 -0.39453,-0.58984 -0.39453,-1.01171 0,-0.49219 0.16406,-0.86328 0.49219,-1.11329 0.33072,-0.24999 0.82291,-0.37499 1.47656,-0.375 l 1.00781,0 0,-0.0703 c 0,-0.33072 -0.10938,-0.58593 -0.32812,-0.76562 -0.21615,-0.18229 -0.52084,-0.27344 -0.91407,-0.27344 -0.25,0 -0.49349,0.03 -0.73047,0.0898 -0.23698,0.0599 -0.46484,0.14975 -0.68359,0.26953 l 0,-0.66406 c 0.26302,-0.10156 0.51823,-0.17708 0.76563,-0.22656 0.24739,-0.0521 0.48828,-0.0781 0.72265,-0.0781 0.63281,10e-6 1.10547,0.16407 1.41797,0.49219 0.3125,0.32813 0.46875,0.82553 0.46875,1.49219"
           id="path12570"
           style="font-size:8px;font-variant:normal;font-stretch:normal;text-align:center;text-anchor:middle;font-family:Sans;-inkscape-font-specification:Sans" />
        <path
           d="m 162.07031,368.65125 0,-2.36719 0.71875,0 0,6.07812 -0.71875,0 0,-0.65625 c -0.15104,0.26042 -0.34245,0.45443 -0.57422,0.58203 -0.22917,0.125 -0.50521,0.1875 -0.82812,0.1875 -0.52865,0 -0.95964,-0.21093 -1.29297,-0.63281 -0.33073,-0.42187 -0.49609,-0.97656 -0.49609,-1.66406 0,-0.6875 0.16536,-1.24219 0.49609,-1.66406 0.33333,-0.42187 0.76432,-0.63281 1.29297,-0.63282 0.32291,10e-6 0.59895,0.0638 0.82812,0.19141 0.23177,0.125 0.42318,0.31771 0.57422,0.57813 m -2.44922,1.52734 c 0,0.52865 0.10808,0.94401 0.32422,1.24609 0.21875,0.29948 0.51823,0.44922 0.89844,0.44922 0.38021,0 0.67968,-0.14974 0.89844,-0.44922 0.21874,-0.30208 0.32812,-0.71744 0.32812,-1.24609 0,-0.52864 -0.10938,-0.94271 -0.32812,-1.24219 -0.21876,-0.30208 -0.51823,-0.45312 -0.89844,-0.45312 -0.38021,0 -0.67969,0.15104 -0.89844,0.45312 -0.21614,0.29948 -0.32422,0.71355 -0.32422,1.24219"
           id="path12572"
           style="font-size:8px;font-variant:normal;font-stretch:normal;text-align:center;text-anchor:middle;font-family:Sans;-inkscape-font-specification:Sans" />
        <path
           d="m 168.01172,369.995 0,0.35156 -3.30469,0 c 0.0312,0.49479 0.17969,0.87239 0.44531,1.13281 0.26823,0.25781 0.64063,0.38672 1.11719,0.38672 0.27604,0 0.54297,-0.0338 0.80078,-0.10156 0.26042,-0.0677 0.51823,-0.16927 0.77344,-0.30469 l 0,0.67969 c -0.25782,0.10937 -0.52214,0.1927 -0.79297,0.25 -0.27084,0.0573 -0.54557,0.0859 -0.82422,0.0859 -0.69792,0 -1.2513,-0.20312 -1.66015,-0.60937 -0.40625,-0.40625 -0.60938,-0.95573 -0.60938,-1.64844 0,-0.71614 0.19271,-1.28385 0.57813,-1.70312 0.38802,-0.42187 0.91015,-0.63281 1.5664,-0.63282 0.58854,10e-6 1.05338,0.19011 1.39453,0.57032 0.34375,0.3776 0.51562,0.89193 0.51563,1.54297 m -0.71875,-0.21094 c -0.005,-0.39323 -0.11589,-0.70703 -0.33203,-0.94141 -0.21355,-0.23437 -0.4974,-0.35156 -0.85157,-0.35156 -0.40104,0 -0.72265,0.11328 -0.96484,0.33984 -0.23958,0.22657 -0.3776,0.54558 -0.41406,0.95703 l 2.5625,-0.004"
           id="path12574"
           style="font-size:8px;font-variant:normal;font-stretch:normal;text-align:center;text-anchor:middle;font-family:Sans;-inkscape-font-specification:Sans" />
        <path
           d="m 171.72656,368.65906 c -0.0807,-0.0469 -0.16927,-0.0807 -0.26562,-0.10156 -0.0938,-0.0234 -0.19792,-0.0352 -0.3125,-0.0352 -0.40625,0 -0.71875,0.13282 -0.9375,0.39844 -0.21615,0.26302 -0.32422,0.64193 -0.32422,1.13672 l 0,2.30468 -0.72266,0 0,-4.375 0.72266,0 0,0.67969 c 0.15104,-0.26562 0.34765,-0.46224 0.58984,-0.58984 0.24219,-0.13021 0.53646,-0.19531 0.88281,-0.19532 0.0495,1e-5 0.10417,0.004 0.16407,0.0117 0.0599,0.005 0.1263,0.0143 0.19922,0.0273 l 0.004,0.73828"
           id="path12576"
           style="font-size:8px;font-variant:normal;font-stretch:normal;text-align:center;text-anchor:middle;font-family:Sans;-inkscape-font-specification:Sans" />
        <path
           d="m 175.06641,366.53015 3.35156,0 0,0.66406 -2.5625,0 0,1.71875 2.3125,0 0,0.66407 -2.3125,0 0,2.78515 -0.78906,0 0,-5.83203"
           id="path12578"
           style="font-size:8px;font-variant:normal;font-stretch:normal;text-align:center;text-anchor:middle;font-family:Sans;-inkscape-font-specification:Sans" />
        <path
           d="m 179.06641,367.98718 0.71875,0 0,4.375 -0.71875,0 0,-4.375 m 0,-1.70312 0.71875,0 0,0.91015 -0.71875,0 0,-0.91015"
           id="path12580"
           style="font-size:8px;font-variant:normal;font-stretch:normal;text-align:center;text-anchor:middle;font-family:Sans;-inkscape-font-specification:Sans" />
        <path
           d="m 181.28516,366.28406 0.71875,0 0,6.07812 -0.71875,0 0,-6.07812"
           id="path12582"
           style="font-size:8px;font-variant:normal;font-stretch:normal;text-align:center;text-anchor:middle;font-family:Sans;-inkscape-font-specification:Sans" />
        <path
           d="m 187.24609,369.995 0,0.35156 -3.30468,0 c 0.0312,0.49479 0.17968,0.87239 0.44531,1.13281 0.26823,0.25781 0.64062,0.38672 1.11719,0.38672 0.27603,0 0.54296,-0.0338 0.80078,-0.10156 0.26041,-0.0677 0.51822,-0.16927 0.77343,-0.30469 l 0,0.67969 c -0.25781,0.10937 -0.52213,0.1927 -0.79296,0.25 -0.27084,0.0573 -0.54558,0.0859 -0.82422,0.0859 -0.69792,0 -1.25131,-0.20312 -1.66016,-0.60937 -0.40625,-0.40625 -0.60937,-0.95573 -0.60937,-1.64844 0,-0.71614 0.1927,-1.28385 0.57812,-1.70312 0.38802,-0.42187 0.91016,-0.63281 1.56641,-0.63282 0.58854,10e-6 1.05338,0.19011 1.39453,0.57032 0.34374,0.3776 0.51562,0.89193 0.51562,1.54297 m -0.71875,-0.21094 c -0.005,-0.39323 -0.11589,-0.70703 -0.33203,-0.94141 -0.21354,-0.23437 -0.4974,-0.35156 -0.85156,-0.35156 -0.40104,0 -0.72266,0.11328 -0.96484,0.33984 -0.23959,0.22657 -0.37761,0.54558 -0.41407,0.95703 l 2.5625,-0.004"
           id="path12584"
           style="font-size:8px;font-variant:normal;font-stretch:normal;text-align:center;text-anchor:middle;font-family:Sans;-inkscape-font-specification:Sans" />
      </g>
      <path
         d="m 100,357.36218 109.99999,0 0,90 -109.99999,0 z"
         id="rect2991-69-0-7-7-0"
         style="fill:none;stroke:#000000;stroke-width:0.99999982;stroke-opacity:1" />
      <g
         id="text2985-2-5-5-4-2-1-2-1"
         style="font-size:40px;font-style:normal;font-weight:normal;line-height:125%;letter-spacing:0px;word-spacing:0px;fill:#000000;fill-opacity:1;stroke:none;font-family:Sans">
        <path
           d="m 293.30078,484.51257 3.6875,0 0,0.66407 -2.89844,0 0,1.72656 2.77735,0 0,0.66406 -2.77735,0 0,2.11328 2.96875,0 0,0.66406 -3.75781,0 0,-5.83203"
           id="path12588"
           style="font-size:8px;font-variant:normal;font-stretch:normal;text-align:center;text-anchor:middle;font-family:Sans;-inkscape-font-specification:Sans" />
        <path
           d="m 301.96875,485.9696 -1.58203,2.12891 1.66406,2.24609 -0.84766,0 -1.27343,-1.71875 -1.27344,1.71875 -0.84766,0 1.69922,-2.28906 -1.55469,-2.08594 0.84766,0 1.16016,1.5586 1.16015,-1.5586 0.84766,0"
           id="path12590"
           style="font-size:8px;font-variant:normal;font-stretch:normal;text-align:center;text-anchor:middle;font-family:Sans;-inkscape-font-specification:Sans" />
        <path
           d="m 303.77734,484.72742 0,1.24218 1.48047,0 0,0.5586 -1.48047,0 0,2.375 c 0,0.35677 0.0482,0.58594 0.14453,0.6875 0.099,0.10156 0.29818,0.15234 0.59766,0.15234 l 0.73828,0 0,0.60156 -0.73828,0 c -0.55469,0 -0.9375,-0.10286 -1.14844,-0.30859 -0.21093,-0.20833 -0.3164,-0.58594 -0.3164,-1.13281 l 0,-2.375 -0.52735,0 0,-0.5586 0.52735,0 0,-1.24218 0.72265,0"
           id="path12592"
           style="font-size:8px;font-variant:normal;font-stretch:normal;text-align:center;text-anchor:middle;font-family:Sans;-inkscape-font-specification:Sans" />
        <path
           d="m 309.94922,487.97742 0,0.35156 -3.30469,0 c 0.0312,0.49479 0.17969,0.8724 0.44531,1.13281 0.26823,0.25782 0.64063,0.38672 1.11719,0.38672 0.27604,0 0.54297,-0.0338 0.80078,-0.10156 0.26042,-0.0677 0.51823,-0.16927 0.77344,-0.30469 l 0,0.67969 c -0.25782,0.10937 -0.52214,0.19271 -0.79297,0.25 -0.27084,0.0573 -0.54557,0.0859 -0.82422,0.0859 -0.69792,0 -1.2513,-0.20313 -1.66015,-0.60938 -0.40625,-0.40625 -0.60938,-0.95573 -0.60938,-1.64844 0,-0.71614 0.19271,-1.28385 0.57813,-1.70312 0.38802,-0.42187 0.91015,-0.63281 1.5664,-0.63281 0.58854,0 1.05338,0.1901 1.39453,0.57031 0.34375,0.37761 0.51562,0.89193 0.51563,1.54297 m -0.71875,-0.21094 c -0.005,-0.39323 -0.11589,-0.70703 -0.33203,-0.94141 -0.21355,-0.23437 -0.4974,-0.35156 -0.85157,-0.35156 -0.40104,0 -0.72265,0.11329 -0.96484,0.33984 -0.23958,0.22657 -0.3776,0.54558 -0.41406,0.95704 l 2.5625,-0.004"
           id="path12594"
           style="font-size:8px;font-variant:normal;font-stretch:normal;text-align:center;text-anchor:middle;font-family:Sans;-inkscape-font-specification:Sans" />
        <path
           d="m 313.66406,486.64148 c -0.0807,-0.0469 -0.16927,-0.0807 -0.26562,-0.10156 -0.0938,-0.0234 -0.19792,-0.0352 -0.3125,-0.0352 -0.40625,0 -0.71875,0.13282 -0.9375,0.39844 -0.21615,0.26302 -0.32422,0.64193 -0.32422,1.13672 l 0,2.30468 -0.72266,0 0,-4.375 0.72266,0 0,0.67969 c 0.15104,-0.26562 0.34765,-0.46223 0.58984,-0.58984 0.24219,-0.13021 0.53646,-0.19531 0.88281,-0.19531 0.0495,0 0.10417,0.004 0.16407,0.0117 0.0599,0.005 0.1263,0.0143 0.19922,0.0274 l 0.004,0.73828"
           id="path12596"
           style="font-size:8px;font-variant:normal;font-stretch:normal;text-align:center;text-anchor:middle;font-family:Sans;-inkscape-font-specification:Sans" />
        <path
           d="m 317.92187,487.70398 0,2.64062 -0.71875,0 0,-2.61718 c 0,-0.41406 -0.0807,-0.72396 -0.24218,-0.92969 -0.16146,-0.20573 -0.40365,-0.30859 -0.72657,-0.30859 -0.38802,0 -0.69401,0.1237 -0.91796,0.37109 -0.22396,0.2474 -0.33594,0.58464 -0.33594,1.01172 l 0,2.47265 -0.72266,0 0,-4.375 0.72266,0 0,0.67969 c 0.17187,-0.26301 0.37369,-0.45963 0.60547,-0.58984 0.23437,-0.13021 0.5039,-0.19531 0.80859,-0.19531 0.5026,0 0.88281,0.15625 1.14063,0.46875 0.2578,0.3099 0.38671,0.76693 0.38671,1.37109"
           id="path12598"
           style="font-size:8px;font-variant:normal;font-stretch:normal;text-align:center;text-anchor:middle;font-family:Sans;-inkscape-font-specification:Sans" />
        <path
           d="m 321.35156,488.14539 c -0.58073,0 -0.98307,0.0664 -1.20703,0.19921 -0.22396,0.13282 -0.33594,0.35938 -0.33594,0.67969 0,0.25521 0.0833,0.45834 0.25,0.60938 0.16927,0.14844 0.39844,0.22265 0.6875,0.22265 0.39844,0 0.71745,-0.14062 0.95703,-0.42187 0.24219,-0.28385 0.36328,-0.66016 0.36329,-1.12891 l 0,-0.16015 -0.71485,0 m 1.4336,-0.29688 0,2.49609 -0.71875,0 0,-0.66406 c -0.16407,0.26563 -0.3685,0.46224 -0.61329,0.58985 -0.24479,0.125 -0.54427,0.1875 -0.89843,0.1875 -0.44792,0 -0.80469,-0.125 -1.07032,-0.375 -0.26302,-0.25261 -0.39453,-0.58985 -0.39453,-1.01172 0,-0.49219 0.16407,-0.86328 0.49219,-1.11328 0.33073,-0.25 0.82292,-0.375 1.47656,-0.375 l 1.00782,0 0,-0.0703 c -1e-5,-0.33072 -0.10938,-0.58593 -0.32813,-0.76562 -0.21615,-0.18229 -0.52083,-0.27344 -0.91406,-0.27344 -0.25,0 -0.49349,0.03 -0.73047,0.0898 -0.23698,0.0599 -0.46484,0.14975 -0.68359,0.26954 l 0,-0.66407 c 0.26302,-0.10155 0.51822,-0.17708 0.76562,-0.22656 0.2474,-0.0521 0.48828,-0.0781 0.72266,-0.0781 0.63281,0 1.10546,0.16406 1.41797,0.49218 0.31249,0.32813 0.46874,0.82553 0.46875,1.49219"
           id="path12600"
           style="font-size:8px;font-variant:normal;font-stretch:normal;text-align:center;text-anchor:middle;font-family:Sans;-inkscape-font-specification:Sans" />
        <path
           d="m 324.26953,484.26648 0.71875,0 0,6.07812 -0.71875,0 0,-6.07812"
           id="path12602"
           style="font-size:8px;font-variant:normal;font-stretch:normal;text-align:center;text-anchor:middle;font-family:Sans;-inkscape-font-specification:Sans" />
        <path
           d="m 331.57031,486.64148 c -0.0807,-0.0469 -0.16927,-0.0807 -0.26562,-0.10156 -0.0938,-0.0234 -0.19792,-0.0352 -0.3125,-0.0352 -0.40625,0 -0.71875,0.13282 -0.9375,0.39844 -0.21615,0.26302 -0.32422,0.64193 -0.32422,1.13672 l 0,2.30468 -0.72266,0 0,-4.375 0.72266,0 0,0.67969 c 0.15104,-0.26562 0.34765,-0.46223 0.58984,-0.58984 0.24219,-0.13021 0.53646,-0.19531 0.88281,-0.19531 0.0495,0 0.10417,0.004 0.16407,0.0117 0.0599,0.005 0.1263,0.0143 0.19922,0.0274 l 0.004,0.73828"
           id="path12604"
           style="font-size:8px;font-variant:normal;font-stretch:normal;text-align:center;text-anchor:middle;font-family:Sans;-inkscape-font-specification:Sans" />
        <path
           d="m 335.90234,487.97742 0,0.35156 -3.30468,0 c 0.0312,0.49479 0.17968,0.8724 0.44531,1.13281 0.26823,0.25782 0.64062,0.38672 1.11719,0.38672 0.27603,0 0.54296,-0.0338 0.80078,-0.10156 0.26041,-0.0677 0.51822,-0.16927 0.77343,-0.30469 l 0,0.67969 c -0.25781,0.10937 -0.52213,0.19271 -0.79296,0.25 -0.27084,0.0573 -0.54558,0.0859 -0.82422,0.0859 -0.69792,0 -1.25131,-0.20313 -1.66016,-0.60938 -0.40625,-0.40625 -0.60937,-0.95573 -0.60937,-1.64844 0,-0.71614 0.1927,-1.28385 0.57812,-1.70312 0.38802,-0.42187 0.91016,-0.63281 1.56641,-0.63281 0.58854,0 1.05338,0.1901 1.39453,0.57031 0.34374,0.37761 0.51562,0.89193 0.51562,1.54297 m -0.71875,-0.21094 c -0.005,-0.39323 -0.11589,-0.70703 -0.33203,-0.94141 -0.21354,-0.23437 -0.4974,-0.35156 -0.85156,-0.35156 -0.40104,0 -0.72266,0.11329 -0.96484,0.33984 -0.23959,0.22657 -0.37761,0.54558 -0.41407,0.95704 l 2.5625,-0.004"
           id="path12606"
           style="font-size:8px;font-variant:normal;font-stretch:normal;text-align:center;text-anchor:middle;font-family:Sans;-inkscape-font-specification:Sans" />
        <path
           d="m 339.87109,486.09851 0,0.67969 c -0.20312,-0.10416 -0.41406,-0.18229 -0.63281,-0.23438 -0.21875,-0.0521 -0.44531,-0.0781 -0.67969,-0.0781 -0.35677,0 -0.625,0.0547 -0.80468,0.16406 -0.17709,0.10938 -0.26563,0.27344 -0.26563,0.49219 0,0.16667 0.0638,0.29818 0.19141,0.39453 0.1276,0.0937 0.38411,0.1836 0.76953,0.26953 l 0.24609,0.0547 c 0.51042,0.10938 0.8724,0.26432 1.08594,0.46484 0.21614,0.19792 0.32421,0.47526 0.32422,0.83203 -1e-5,0.40625 -0.16146,0.72787 -0.48438,0.96485 -0.32031,0.23698 -0.76172,0.35547 -1.32422,0.35547 -0.23437,0 -0.47916,-0.0234 -0.73437,-0.0703 -0.25261,-0.0443 -0.51953,-0.11198 -0.80078,-0.20312 l 0,-0.74219 c 0.26562,0.13802 0.52734,0.24219 0.78515,0.3125 0.25782,0.0677 0.51302,0.10156 0.76563,0.10156 0.33854,0 0.59896,-0.0573 0.78125,-0.17187 0.18229,-0.11719 0.27343,-0.28125 0.27344,-0.49219 -10e-6,-0.19531 -0.0664,-0.34505 -0.19922,-0.44922 -0.13021,-0.10416 -0.41797,-0.20442 -0.86328,-0.30078 l -0.25,-0.0586 c -0.44532,-0.0937 -0.76693,-0.23698 -0.96485,-0.42969 -0.19791,-0.19531 -0.29687,-0.46224 -0.29687,-0.80078 0,-0.41146 0.14583,-0.72916 0.4375,-0.95313 0.29166,-0.22395 0.70573,-0.33593 1.24219,-0.33593 0.26562,0 0.51562,0.0195 0.75,0.0586 0.23437,0.0391 0.45051,0.0977 0.64843,0.17578"
           id="path12608"
           style="font-size:8px;font-variant:normal;font-stretch:normal;text-align:center;text-anchor:middle;font-family:Sans;-inkscape-font-specification:Sans" />
        <path
           d="m 342.94922,486.47351 c -0.38542,0 -0.69011,0.15105 -0.91406,0.45313 -0.22396,0.29948 -0.33594,0.71094 -0.33594,1.23437 0,0.52344 0.11067,0.9362 0.33203,1.23828 0.22396,0.29948 0.52995,0.44922 0.91797,0.44922 0.38281,0 0.68619,-0.15104 0.91015,-0.45312 0.22396,-0.30209 0.33594,-0.71354 0.33594,-1.23438 0,-0.51823 -0.11198,-0.92838 -0.33594,-1.23047 -0.22396,-0.30468 -0.52734,-0.45703 -0.91015,-0.45703 m 0,-0.60937 c 0.625,0 1.11588,0.20313 1.47265,0.60937 0.35677,0.40625 0.53516,0.96875 0.53516,1.6875 0,0.71615 -0.17839,1.27865 -0.53516,1.6875 -0.35677,0.40625 -0.84765,0.60938 -1.47265,0.60938 -0.62761,0 -1.11979,-0.20313 -1.47656,-0.60938 -0.35417,-0.40885 -0.53125,-0.97135 -0.53125,-1.6875 0,-0.71875 0.17708,-1.28125 0.53125,-1.6875 0.35677,-0.40624 0.84895,-0.60937 1.47656,-0.60937"
           id="path12610"
           style="font-size:8px;font-variant:normal;font-stretch:normal;text-align:center;text-anchor:middle;font-family:Sans;-inkscape-font-specification:Sans" />
        <path
           d="m 346.07031,488.61804 0,-2.64844 0.71875,0 0,2.6211 c 0,0.41406 0.0807,0.72526 0.24219,0.93359 0.16146,0.20573 0.40364,0.3086 0.72656,0.3086 0.38802,0 0.69401,-0.1237 0.91797,-0.3711 0.22656,-0.24739 0.33984,-0.58463 0.33984,-1.01172 l 0,-2.48047 0.71875,0 0,4.375 -0.71875,0 0,-0.67187 c -0.17448,0.26562 -0.3776,0.46354 -0.60937,0.59375 -0.22917,0.1276 -0.4961,0.19141 -0.80078,0.19141 -0.50261,0 -0.88412,-0.15625 -1.14453,-0.46875 -0.26042,-0.3125 -0.39063,-0.76953 -0.39063,-1.3711 m 1.8086,-2.7539 0,0"
           id="path12612"
           style="font-size:8px;font-variant:normal;font-stretch:normal;text-align:center;text-anchor:middle;font-family:Sans;-inkscape-font-specification:Sans" />
        <path
           d="m 353.75781,486.64148 c -0.0807,-0.0469 -0.16927,-0.0807 -0.26562,-0.10156 -0.0938,-0.0234 -0.19792,-0.0352 -0.3125,-0.0352 -0.40625,0 -0.71875,0.13282 -0.9375,0.39844 -0.21615,0.26302 -0.32422,0.64193 -0.32422,1.13672 l 0,2.30468 -0.72266,0 0,-4.375 0.72266,0 0,0.67969 c 0.15104,-0.26562 0.34765,-0.46223 0.58984,-0.58984 0.24219,-0.13021 0.53646,-0.19531 0.88281,-0.19531 0.0495,0 0.10417,0.004 0.16407,0.0117 0.0599,0.005 0.1263,0.0143 0.19922,0.0274 l 0.004,0.73828"
           id="path12614"
           style="font-size:8px;font-variant:normal;font-stretch:normal;text-align:center;text-anchor:middle;font-family:Sans;-inkscape-font-specification:Sans" />
        <path
           d="m 357.49609,486.13757 0,0.67188 c -0.20312,-0.11198 -0.40755,-0.19531 -0.61328,-0.25 -0.20313,-0.0573 -0.40885,-0.0859 -0.61719,-0.0859 -0.46614,0 -0.82812,0.14844 -1.08593,0.44531 -0.25782,0.29428 -0.38672,0.70834 -0.38672,1.24219 0,0.53386 0.1289,0.94922 0.38672,1.24609 0.25781,0.29428 0.61979,0.44141 1.08593,0.44141 0.20834,0 0.41406,-0.0273 0.61719,-0.082 0.20573,-0.0573 0.41016,-0.14193 0.61328,-0.25391 l 0,0.66407 c -0.20052,0.0937 -0.40885,0.16406 -0.625,0.21093 -0.21354,0.0469 -0.44141,0.0703 -0.68359,0.0703 -0.65886,0 -1.18229,-0.20704 -1.57031,-0.6211 -0.38802,-0.41406 -0.58203,-0.97265 -0.58203,-1.67578 0,-0.71354 0.19531,-1.27474 0.58593,-1.68359 0.39323,-0.40885 0.93099,-0.61328 1.61328,-0.61328 0.22136,0 0.4375,0.0234 0.64844,0.0703 0.21094,0.0443 0.41536,0.11198 0.61328,0.20312"
           id="path12616"
           style="font-size:8px;font-variant:normal;font-stretch:normal;text-align:center;text-anchor:middle;font-family:Sans;-inkscape-font-specification:Sans" />
        <path
           d="m 362.49609,487.97742 0,0.35156 -3.30468,0 c 0.0312,0.49479 0.17968,0.8724 0.44531,1.13281 0.26823,0.25782 0.64062,0.38672 1.11719,0.38672 0.27603,0 0.54296,-0.0338 0.80078,-0.10156 0.26041,-0.0677 0.51822,-0.16927 0.77343,-0.30469 l 0,0.67969 c -0.25781,0.10937 -0.52213,0.19271 -0.79296,0.25 -0.27084,0.0573 -0.54558,0.0859 -0.82422,0.0859 -0.69792,0 -1.25131,-0.20313 -1.66016,-0.60938 -0.40625,-0.40625 -0.60937,-0.95573 -0.60937,-1.64844 0,-0.71614 0.1927,-1.28385 0.57812,-1.70312 0.38802,-0.42187 0.91016,-0.63281 1.56641,-0.63281 0.58854,0 1.05338,0.1901 1.39453,0.57031 0.34374,0.37761 0.51562,0.89193 0.51562,1.54297 m -0.71875,-0.21094 c -0.005,-0.39323 -0.11589,-0.70703 -0.33203,-0.94141 -0.21354,-0.23437 -0.4974,-0.35156 -0.85156,-0.35156 -0.40104,0 -0.72266,0.11329 -0.96484,0.33984 -0.23959,0.22657 -0.37761,0.54558 -0.41407,0.95704 l 2.5625,-0.004"
           id="path12618"
           style="font-size:8px;font-variant:normal;font-stretch:normal;text-align:center;text-anchor:middle;font-family:Sans;-inkscape-font-specification:Sans" />
        <path
           d="m 366.46484,486.09851 0,0.67969 c -0.20312,-0.10416 -0.41406,-0.18229 -0.63281,-0.23438 -0.21875,-0.0521 -0.44531,-0.0781 -0.67969,-0.0781 -0.35677,0 -0.625,0.0547 -0.80468,0.16406 -0.17709,0.10938 -0.26563,0.27344 -0.26563,0.49219 0,0.16667 0.0638,0.29818 0.19141,0.39453 0.1276,0.0937 0.38411,0.1836 0.76953,0.26953 l 0.24609,0.0547 c 0.51042,0.10938 0.8724,0.26432 1.08594,0.46484 0.21614,0.19792 0.32421,0.47526 0.32422,0.83203 -1e-5,0.40625 -0.16146,0.72787 -0.48438,0.96485 -0.32031,0.23698 -0.76172,0.35547 -1.32422,0.35547 -0.23437,0 -0.47916,-0.0234 -0.73437,-0.0703 -0.25261,-0.0443 -0.51953,-0.11198 -0.80078,-0.20312 l 0,-0.74219 c 0.26562,0.13802 0.52734,0.24219 0.78515,0.3125 0.25782,0.0677 0.51302,0.10156 0.76563,0.10156 0.33854,0 0.59896,-0.0573 0.78125,-0.17187 0.18229,-0.11719 0.27343,-0.28125 0.27344,-0.49219 -10e-6,-0.19531 -0.0664,-0.34505 -0.19922,-0.44922 -0.13021,-0.10416 -0.41797,-0.20442 -0.86328,-0.30078 l -0.25,-0.0586 c -0.44532,-0.0937 -0.76693,-0.23698 -0.96485,-0.42969 -0.19791,-0.19531 -0.29687,-0.46224 -0.29687,-0.80078 0,-0.41146 0.14583,-0.72916 0.4375,-0.95313 0.29166,-0.22395 0.70573,-0.33593 1.24219,-0.33593 0.26562,0 0.51562,0.0195 0.75,0.0586 0.23437,0.0391 0.45051,0.0977 0.64843,0.17578"
           id="path12620"
           style="font-size:8px;font-variant:normal;font-stretch:normal;text-align:center;text-anchor:middle;font-family:Sans;-inkscape-font-specification:Sans" />
      </g>
      <path
         d="m 205,432.36222 45,0 0,55 10,0 15,0"
         id="path3314-0-2-6"
         style="fill:none;stroke:#000000;stroke-width:1px;stroke-linecap:butt;stroke-linejoin:miter;stroke-opacity:1;marker-end:url(#Arrow2Lend)" />
      <path
         d="m 205,392.36219 25,-10e-6 0,-40 50,0 0,0"
         id="path3314-7-9"
         style="fill:none;stroke:#000000;stroke-width:1px;stroke-linecap:butt;stroke-linejoin:miter;stroke-opacity:1;marker-end:url(#Arrow2Lend)" />
      <path
         d="m 205,412.36219 45,0 0,-40.00001 30,0 0,0"
         id="path3314-0-5-1"
         style="fill:none;stroke:#000000;stroke-width:1px;stroke-linecap:butt;stroke-linejoin:miter;stroke-opacity:1;marker-end:url(#Arrow2Lend)" />
      <g
         id="text2985-2-5-5-4-2-1-8-1"
         style="font-size:40px;font-style:normal;font-weight:normal;line-height:125%;letter-spacing:0px;word-spacing:0px;fill:#000000;fill-opacity:1;stroke:none;font-family:Sans">
        <path
           d="m 288.09766,326.53018 0.84765,0 1.44922,2.16797 1.45703,-2.16797 0.84766,0 -1.875,2.80078 2,3.03125 -0.84766,0 -1.64062,-2.48047 -1.65235,2.48047 -0.85156,0 2.08203,-3.11328 -1.8164,-2.71875"
           id="path12623"
           style="font-size:8px;font-variant:normal;font-stretch:normal;text-align:center;text-anchor:middle;font-family:Sans;-inkscape-font-specification:Sans" />
        <path
           d="m 293.86328,326.53018 0.78906,0 0,5.83203 -0.78906,0 0,-5.83203"
           id="path12625"
           style="font-size:8px;font-variant:normal;font-stretch:normal;text-align:center;text-anchor:middle;font-family:Sans;-inkscape-font-specification:Sans" />
        <path
           d="m 299.71875,326.72159 0,0.76953 c -0.29948,-0.14322 -0.58203,-0.25 -0.84766,-0.32031 -0.26562,-0.0703 -0.52213,-0.10547 -0.76953,-0.10547 -0.42969,0 -0.76172,0.0833 -0.99609,0.25 -0.23177,0.16667 -0.34766,0.40365 -0.34766,0.71094 0,0.25781 0.0768,0.45312 0.23047,0.58593 0.15625,0.13022 0.45052,0.23568 0.88281,0.31641 l 0.47657,0.0977 c 0.58853,0.11198 1.02213,0.30989 1.30078,0.59375 0.28124,0.28125 0.42187,0.65885 0.42187,1.13281 0,0.5651 -0.19011,0.99349 -0.57031,1.28515 -0.37761,0.29167 -0.93229,0.4375 -1.66406,0.4375 -0.27605,0 -0.57032,-0.0312 -0.88282,-0.0937 -0.30989,-0.0625 -0.63151,-0.15494 -0.96484,-0.27734 l 0,-0.8125 c 0.32031,0.17969 0.63411,0.31511 0.94141,0.40625 0.30729,0.0912 0.60937,0.13672 0.90625,0.13672 0.45052,0 0.79817,-0.0885 1.04297,-0.26563 0.24478,-0.17708 0.36718,-0.42968 0.36718,-0.75781 0,-0.28645 -0.0885,-0.51041 -0.26562,-0.67187 -0.17448,-0.16146 -0.46224,-0.28255 -0.86328,-0.36328 l -0.48047,-0.0937 c -0.58854,-0.11719 -1.01433,-0.30078 -1.27735,-0.55079 -0.26302,-0.24999 -0.39453,-0.59765 -0.39453,-1.04296 0,-0.51562 0.18099,-0.92187 0.54297,-1.21875 0.36458,-0.29687 0.86589,-0.44531 1.50391,-0.44532 0.27343,1e-5 0.55208,0.0247 0.83594,0.0742 0.28385,0.0495 0.57421,0.12371 0.87109,0.22266"
           id="path12627"
           style="font-size:8px;font-variant:normal;font-stretch:normal;text-align:center;text-anchor:middle;font-family:Sans;-inkscape-font-specification:Sans" />
        <path
           d="m 301.30078,326.53018 3.35156,0 0,0.66406 -2.5625,0 0,1.71875 2.3125,0 0,0.66407 -2.3125,0 0,2.78515 -0.78906,0 0,-5.83203"
           id="path12629"
           style="font-size:8px;font-variant:normal;font-stretch:normal;text-align:center;text-anchor:middle;font-family:Sans;-inkscape-font-specification:Sans" />
        <path
           d="m 311.30469,328.65128 0,-2.36719 0.71875,0 0,6.07812 -0.71875,0 0,-0.65625 c -0.15105,0.26042 -0.34245,0.45443 -0.57422,0.58203 -0.22917,0.125 -0.50521,0.1875 -0.82813,0.1875 -0.52864,0 -0.95963,-0.21093 -1.29297,-0.63281 -0.33072,-0.42187 -0.49609,-0.97656 -0.49609,-1.66406 0,-0.6875 0.16537,-1.24218 0.49609,-1.66406 0.33334,-0.42187 0.76433,-0.63281 1.29297,-0.63282 0.32292,1e-5 0.59896,0.0638 0.82813,0.19141 0.23177,0.125 0.42317,0.31771 0.57422,0.57813 m -2.44922,1.52734 c 0,0.52865 0.10807,0.94401 0.32422,1.24609 0.21875,0.29948 0.51822,0.44922 0.89843,0.44922 0.38021,0 0.67969,-0.14974 0.89844,-0.44922 0.21875,-0.30208 0.32812,-0.71744 0.32813,-1.24609 -10e-6,-0.52864 -0.10938,-0.94271 -0.32813,-1.24219 -0.21875,-0.30208 -0.51823,-0.45312 -0.89844,-0.45312 -0.38021,0 -0.67968,0.15104 -0.89843,0.45312 -0.21615,0.29948 -0.32422,0.71355 -0.32422,1.24219"
           id="path12631"
           style="font-size:8px;font-variant:normal;font-stretch:normal;text-align:center;text-anchor:middle;font-family:Sans;-inkscape-font-specification:Sans" />
        <path
           d="m 315.49219,330.16299 c -0.58073,1e-5 -0.98308,0.0664 -1.20703,0.19922 -0.22396,0.13282 -0.33594,0.35938 -0.33594,0.67969 0,0.25521 0.0833,0.45833 0.25,0.60938 0.16927,0.14843 0.39843,0.22265 0.6875,0.22265 0.39843,0 0.71744,-0.14062 0.95703,-0.42187 0.24218,-0.28386 0.36328,-0.66016 0.36328,-1.12891 l 0,-0.16016 -0.71484,0 m 1.43359,-0.29687 0,2.49609 -0.71875,0 0,-0.66406 c -0.16406,0.26563 -0.36849,0.46224 -0.61328,0.58984 -0.24479,0.125 -0.54427,0.1875 -0.89844,0.1875 -0.44792,0 -0.80469,-0.125 -1.07031,-0.375 -0.26302,-0.2526 -0.39453,-0.58984 -0.39453,-1.01171 0,-0.49219 0.16406,-0.86328 0.49219,-1.11329 0.33072,-0.24999 0.82291,-0.37499 1.47656,-0.375 l 1.00781,0 0,-0.0703 c 0,-0.33072 -0.10938,-0.58593 -0.32812,-0.76562 -0.21615,-0.18229 -0.52084,-0.27344 -0.91407,-0.27344 -0.25,0 -0.49349,0.0299 -0.73047,0.0898 -0.23698,0.0599 -0.46484,0.14975 -0.68359,0.26953 l 0,-0.66406 c 0.26302,-0.10156 0.51823,-0.17708 0.76563,-0.22656 0.24739,-0.0521 0.48828,-0.0781 0.72265,-0.0781 0.63281,1e-5 1.10547,0.16407 1.41797,0.49219 0.3125,0.32813 0.46875,0.82553 0.46875,1.49219"
           id="path12633"
           style="font-size:8px;font-variant:normal;font-stretch:normal;text-align:center;text-anchor:middle;font-family:Sans;-inkscape-font-specification:Sans" />
        <path
           d="m 319.12109,326.74503 0,1.24218 1.48047,0 0,0.5586 -1.48047,0 0,2.375 c 0,0.35677 0.0482,0.58594 0.14453,0.6875 0.099,0.10156 0.29818,0.15234 0.59766,0.15234 l 0.73828,0 0,0.60156 -0.73828,0 c -0.55469,0 -0.9375,-0.10286 -1.14844,-0.30859 -0.21093,-0.20833 -0.3164,-0.58594 -0.3164,-1.13281 l 0,-2.375 -0.52735,0 0,-0.5586 0.52735,0 0,-1.24218 0.72265,0"
           id="path12635"
           style="font-size:8px;font-variant:normal;font-stretch:normal;text-align:center;text-anchor:middle;font-family:Sans;-inkscape-font-specification:Sans" />
        <path
           d="m 323.53906,330.16299 c -0.58073,1e-5 -0.98307,0.0664 -1.20703,0.19922 -0.22396,0.13282 -0.33594,0.35938 -0.33594,0.67969 0,0.25521 0.0833,0.45833 0.25,0.60938 0.16927,0.14843 0.39844,0.22265 0.6875,0.22265 0.39844,0 0.71745,-0.14062 0.95703,-0.42187 0.24219,-0.28386 0.36328,-0.66016 0.36329,-1.12891 l 0,-0.16016 -0.71485,0 m 1.4336,-0.29687 0,2.49609 -0.71875,0 0,-0.66406 c -0.16407,0.26563 -0.3685,0.46224 -0.61329,0.58984 -0.24479,0.125 -0.54427,0.1875 -0.89843,0.1875 -0.44792,0 -0.80469,-0.125 -1.07032,-0.375 -0.26302,-0.2526 -0.39453,-0.58984 -0.39453,-1.01171 0,-0.49219 0.16407,-0.86328 0.49219,-1.11329 0.33073,-0.24999 0.82292,-0.37499 1.47656,-0.375 l 1.00782,0 0,-0.0703 c -1e-5,-0.33072 -0.10938,-0.58593 -0.32813,-0.76562 -0.21615,-0.18229 -0.52083,-0.27344 -0.91406,-0.27344 -0.25,0 -0.49349,0.0299 -0.73047,0.0898 -0.23698,0.0599 -0.46484,0.14975 -0.68359,0.26953 l 0,-0.66406 c 0.26302,-0.10156 0.51822,-0.17708 0.76562,-0.22656 0.2474,-0.0521 0.48828,-0.0781 0.72266,-0.0781 0.63281,1e-5 1.10546,0.16407 1.41797,0.49219 0.31249,0.32813 0.46874,0.82553 0.46875,1.49219"
           id="path12637"
           style="font-size:8px;font-variant:normal;font-stretch:normal;text-align:center;text-anchor:middle;font-family:Sans;-inkscape-font-specification:Sans" />
        <path
           d="m 332.14453,330.17862 c 0,-0.52864 -0.10938,-0.94271 -0.32812,-1.24219 -0.21615,-0.30208 -0.51433,-0.45312 -0.89454,-0.45312 -0.38021,0 -0.67968,0.15104 -0.89843,0.45312 -0.21615,0.29948 -0.32422,0.71355 -0.32422,1.24219 0,0.52865 0.10807,0.94401 0.32422,1.24609 0.21875,0.29948 0.51822,0.44922 0.89843,0.44922 0.38021,0 0.67839,-0.14974 0.89454,-0.44922 0.21874,-0.30208 0.32812,-0.71744 0.32812,-1.24609 m -2.44531,-1.52734 c 0.15104,-0.26042 0.34114,-0.45313 0.57031,-0.57813 0.23177,-0.1276 0.50781,-0.1914 0.82813,-0.19141 0.53124,1e-5 0.96223,0.21095 1.29296,0.63282 0.33333,0.42188 0.5,0.97656 0.5,1.66406 0,0.6875 -0.16667,1.24219 -0.5,1.66406 -0.33073,0.42188 -0.76172,0.63281 -1.29296,0.63281 -0.32032,0 -0.59636,-0.0625 -0.82813,-0.1875 -0.22917,-0.1276 -0.41927,-0.32161 -0.57031,-0.58203 l 0,0.65625 -0.72266,0 0,-6.07812 0.72266,0 0,2.36719"
           id="path12639"
           style="font-size:8px;font-variant:normal;font-stretch:normal;text-align:center;text-anchor:middle;font-family:Sans;-inkscape-font-specification:Sans" />
        <path
           d="m 334.08203,326.28409 0.71875,0 0,6.07812 -0.71875,0 0,-6.07812"
           id="path12641"
           style="font-size:8px;font-variant:normal;font-stretch:normal;text-align:center;text-anchor:middle;font-family:Sans;-inkscape-font-specification:Sans" />
        <path
           d="m 337.99609,328.49112 c -0.38541,0 -0.6901,0.15104 -0.91406,0.45312 -0.22396,0.29949 -0.33594,0.71094 -0.33594,1.23438 0,0.52344 0.11068,0.9362 0.33203,1.23828 0.22396,0.29948 0.52995,0.44922 0.91797,0.44922 0.38281,0 0.6862,-0.15104 0.91016,-0.45313 0.22395,-0.30208 0.33593,-0.71354 0.33594,-1.23437 -10e-6,-0.51823 -0.11199,-0.92838 -0.33594,-1.23047 -0.22396,-0.30468 -0.52735,-0.45703 -0.91016,-0.45703 m 0,-0.60938 c 0.625,1e-5 1.11589,0.20313 1.47266,0.60938 0.35677,0.40625 0.53515,0.96875 0.53516,1.6875 -1e-5,0.71615 -0.17839,1.27865 -0.53516,1.6875 -0.35677,0.40625 -0.84766,0.60937 -1.47266,0.60937 -0.6276,0 -1.11979,-0.20312 -1.47656,-0.60937 -0.35417,-0.40885 -0.53125,-0.97135 -0.53125,-1.6875 0,-0.71875 0.17708,-1.28125 0.53125,-1.6875 0.35677,-0.40625 0.84896,-0.60937 1.47656,-0.60938"
           id="path12643"
           style="font-size:8px;font-variant:normal;font-stretch:normal;text-align:center;text-anchor:middle;font-family:Sans;-inkscape-font-specification:Sans" />
        <path
           d="m 344.33984,328.15518 0,0.67188 c -0.20312,-0.11198 -0.40755,-0.19531 -0.61328,-0.25 -0.20313,-0.0573 -0.40885,-0.0859 -0.61719,-0.0859 -0.46614,0 -0.82812,0.14844 -1.08593,0.44531 -0.25782,0.29428 -0.38672,0.70834 -0.38672,1.24219 0,0.53386 0.1289,0.94922 0.38672,1.24609 0.25781,0.29427 0.61979,0.44141 1.08593,0.44141 0.20834,0 0.41406,-0.0273 0.61719,-0.082 0.20573,-0.0573 0.41016,-0.14193 0.61328,-0.25391 l 0,0.66406 c -0.20052,0.0937 -0.40885,0.16407 -0.625,0.21094 -0.21354,0.0469 -0.44141,0.0703 -0.68359,0.0703 -0.65886,0 -1.18229,-0.20703 -1.57031,-0.62109 -0.38802,-0.41406 -0.58203,-0.97265 -0.58203,-1.67578 0,-0.71354 0.19531,-1.27474 0.58593,-1.68359 0.39323,-0.40885 0.93099,-0.61328 1.61328,-0.61329 0.22136,10e-6 0.4375,0.0235 0.64844,0.0703 0.21094,0.0443 0.41536,0.11198 0.61328,0.20312"
           id="path12645"
           style="font-size:8px;font-variant:normal;font-stretch:normal;text-align:center;text-anchor:middle;font-family:Sans;-inkscape-font-specification:Sans" />
        <path
           d="m 345.57031,326.28409 0.72266,0 0,3.58984 2.14453,-1.88672 0.91797,0 -2.32031,2.04688 2.41796,2.32812 -0.9375,0 -2.22265,-2.13672 0,2.13672 -0.72266,0 0,-6.07812"
           id="path12647"
           style="font-size:8px;font-variant:normal;font-stretch:normal;text-align:center;text-anchor:middle;font-family:Sans;-inkscape-font-specification:Sans" />
        <path
           d="m 353.02734,328.11612 0,0.67969 c -0.20312,-0.10417 -0.41406,-0.18229 -0.63281,-0.23438 -0.21875,-0.0521 -0.44531,-0.0781 -0.67969,-0.0781 -0.35677,0 -0.625,0.0547 -0.80468,0.16406 -0.17709,0.10938 -0.26563,0.27344 -0.26563,0.49219 0,0.16667 0.0638,0.29818 0.19141,0.39453 0.1276,0.0937 0.38411,0.18359 0.76953,0.26953 l 0.24609,0.0547 c 0.51042,0.10937 0.8724,0.26432 1.08594,0.46484 0.21614,0.19792 0.32421,0.47526 0.32422,0.83203 -1e-5,0.40625 -0.16146,0.72787 -0.48438,0.96485 -0.32031,0.23697 -0.76172,0.35546 -1.32422,0.35546 -0.23437,0 -0.47916,-0.0234 -0.73437,-0.0703 -0.25261,-0.0443 -0.51953,-0.11198 -0.80078,-0.20312 l 0,-0.74219 c 0.26562,0.13802 0.52734,0.24219 0.78515,0.3125 0.25782,0.0677 0.51302,0.10156 0.76563,0.10156 0.33854,0 0.59896,-0.0573 0.78125,-0.17187 0.18229,-0.11719 0.27343,-0.28125 0.27344,-0.49219 -10e-6,-0.19531 -0.0664,-0.34505 -0.19922,-0.44922 -0.13021,-0.10416 -0.41797,-0.20442 -0.86328,-0.30078 l -0.25,-0.0586 c -0.44532,-0.0937 -0.76693,-0.23698 -0.96485,-0.42969 -0.19791,-0.19531 -0.29687,-0.46224 -0.29687,-0.80078 0,-0.41146 0.14583,-0.72917 0.4375,-0.95313 0.29166,-0.22395 0.70573,-0.33593 1.24219,-0.33594 0.26562,10e-6 0.51562,0.0195 0.75,0.0586 0.23437,0.0391 0.45051,0.0977 0.64843,0.17578"
           id="path12649"
           style="font-size:8px;font-variant:normal;font-stretch:normal;text-align:center;text-anchor:middle;font-family:Sans;-inkscape-font-specification:Sans" />
        <path
           d="m 360.49219,327.98721 0,4.375 -0.72266,0 0,-3.8164 -1.97266,0 0,3.8164 -0.72265,0 0,-3.8164 -0.6875,0 0,-0.5586 0.6875,0 0,-0.30468 c 0,-0.47656 0.11198,-0.82812 0.33594,-1.05469 0.22656,-0.22916 0.57291,-0.34375 1.03906,-0.34375 l 0.72265,0 0,0.59765 -0.6875,0 c -0.25781,1e-5 -0.4375,0.0521 -0.53906,0.15625 -0.099,0.10418 -0.14844,0.29168 -0.14844,0.5625 l 0,0.38672 2.69532,0 m -0.72266,-1.69531 0.72266,0 0,0.91016 -0.72266,0 0,-0.91016"
           id="path12651"
           style="font-size:8px;font-variant:normal;font-stretch:normal;text-align:center;text-anchor:middle;font-family:Sans;-inkscape-font-specification:Sans" />
        <path
           d="m 362.00391,326.28409 0.71875,0 0,6.07812 -0.71875,0 0,-6.07812"
           id="path12653"
           style="font-size:8px;font-variant:normal;font-stretch:normal;text-align:center;text-anchor:middle;font-family:Sans;-inkscape-font-specification:Sans" />
        <path
           d="m 367.96484,329.99503 0,0.35156 -3.30468,0 c 0.0312,0.49479 0.17968,0.8724 0.44531,1.13281 0.26823,0.25781 0.64062,0.38672 1.11719,0.38672 0.27603,0 0.54296,-0.0339 0.80078,-0.10156 0.26041,-0.0677 0.51822,-0.16927 0.77343,-0.30469 l 0,0.67969 c -0.25781,0.10937 -0.52213,0.19271 -0.79296,0.25 -0.27084,0.0573 -0.54558,0.0859 -0.82422,0.0859 -0.69792,0 -1.25131,-0.20312 -1.66016,-0.60937 -0.40625,-0.40625 -0.60937,-0.95573 -0.60937,-1.64844 0,-0.71614 0.1927,-1.28385 0.57812,-1.70312 0.38802,-0.42187 0.91016,-0.63281 1.56641,-0.63282 0.58854,10e-6 1.05338,0.19011 1.39453,0.57032 0.34374,0.3776 0.51562,0.89193 0.51562,1.54297 m -0.71875,-0.21094 c -0.005,-0.39323 -0.11589,-0.70703 -0.33203,-0.94141 -0.21354,-0.23437 -0.4974,-0.35156 -0.85156,-0.35156 -0.40104,0 -0.72266,0.11328 -0.96484,0.33984 -0.23959,0.22657 -0.37761,0.54558 -0.41407,0.95703 l 2.5625,-0.004"
           id="path12655"
           style="font-size:8px;font-variant:normal;font-stretch:normal;text-align:center;text-anchor:middle;font-family:Sans;-inkscape-font-specification:Sans" />
        <path
           d="m 371.93359,328.11612 0,0.67969 c -0.20312,-0.10417 -0.41406,-0.18229 -0.63281,-0.23438 -0.21875,-0.0521 -0.44531,-0.0781 -0.67969,-0.0781 -0.35677,0 -0.625,0.0547 -0.80468,0.16406 -0.17709,0.10938 -0.26563,0.27344 -0.26563,0.49219 0,0.16667 0.0638,0.29818 0.19141,0.39453 0.1276,0.0937 0.38411,0.18359 0.76953,0.26953 l 0.24609,0.0547 c 0.51042,0.10937 0.8724,0.26432 1.08594,0.46484 0.21614,0.19792 0.32421,0.47526 0.32422,0.83203 -1e-5,0.40625 -0.16146,0.72787 -0.48438,0.96485 -0.32031,0.23697 -0.76172,0.35546 -1.32422,0.35546 -0.23437,0 -0.47916,-0.0234 -0.73437,-0.0703 -0.25261,-0.0443 -0.51953,-0.11198 -0.80078,-0.20312 l 0,-0.74219 c 0.26562,0.13802 0.52734,0.24219 0.78515,0.3125 0.25782,0.0677 0.51302,0.10156 0.76563,0.10156 0.33854,0 0.59896,-0.0573 0.78125,-0.17187 0.18229,-0.11719 0.27343,-0.28125 0.27344,-0.49219 -10e-6,-0.19531 -0.0664,-0.34505 -0.19922,-0.44922 -0.13021,-0.10416 -0.41797,-0.20442 -0.86328,-0.30078 l -0.25,-0.0586 c -0.44532,-0.0937 -0.76693,-0.23698 -0.96485,-0.42969 -0.19791,-0.19531 -0.29687,-0.46224 -0.29687,-0.80078 0,-0.41146 0.14583,-0.72917 0.4375,-0.95313 0.29166,-0.22395 0.70573,-0.33593 1.24219,-0.33594 0.26562,10e-6 0.51562,0.0195 0.75,0.0586 0.23437,0.0391 0.45051,0.0977 0.64843,0.17578"
           id="path12657"
           style="font-size:8px;font-variant:normal;font-stretch:normal;text-align:center;text-anchor:middle;font-family:Sans;-inkscape-font-specification:Sans" />
      </g>
      <path
         d="m 275,317.36224 109.99999,0 0,109.99997 -109.99999,0 z"
         id="rect2991-69-0-7-8"
         style="fill:none;stroke:#000000;stroke-width:0.99999994;stroke-opacity:1" />
      <g
         id="text3083-8-0-0"
         style="font-size:40px;font-style:normal;font-weight:normal;line-height:125%;letter-spacing:0px;word-spacing:0px;fill:#000000;fill-opacity:1;stroke:none;font-family:Sans">
        <path
           d="m 329.27881,396.92468 1.44238,0 0,1.73633 -1.44238,0 0,-1.73633 m 0,-9.57031 1.44238,0 0,1.73633 -1.44238,0 0,-1.73633 m 0,4.78516 1.44238,0 0,1.73632 -1.44238,0 0,-1.73632"
           id="path12661"
           style="font-size:14px" />
      </g>
      <g
         id="text2985-2-5-5-4-2-1-8-8-1-0"
         style="font-size:40px;font-style:normal;font-weight:normal;line-height:125%;letter-spacing:0px;word-spacing:0px;fill:#000000;fill-opacity:1;stroke:none;font-family:Sans">
        <path
           d="m 297.55078,369.51257 0.84766,0 1.44922,2.16797 1.45703,-2.16797 0.84765,0 -1.875,2.80078 2,3.03125 -0.84765,0 -1.64063,-2.48046 -1.65234,2.48046 -0.85156,0 2.08203,-3.11328 -1.81641,-2.71875"
           id="path12664"
           style="font-size:8px;font-variant:normal;font-stretch:normal;text-align:center;text-anchor:middle;font-family:Sans;-inkscape-font-specification:Sans" />
        <path
           d="m 303.31641,369.51257 0.78906,0 0,5.83203 -0.78906,0 0,-5.83203"
           id="path12666"
           style="font-size:8px;font-variant:normal;font-stretch:normal;text-align:center;text-anchor:middle;font-family:Sans;-inkscape-font-specification:Sans" />
        <path
           d="m 309.17187,369.70398 0,0.76953 c -0.29948,-0.14322 -0.58203,-0.24999 -0.84765,-0.32031 -0.26563,-0.0703 -0.52214,-0.10547 -0.76953,-0.10547 -0.42969,0 -0.76172,0.0833 -0.9961,0.25 -0.23177,0.16667 -0.34765,0.40365 -0.34765,0.71094 0,0.25781 0.0768,0.45313 0.23047,0.58593 0.15624,0.13022 0.45052,0.23569 0.88281,0.31641 l 0.47656,0.0977 c 0.58854,0.11198 1.02213,0.3099 1.30078,0.59375 0.28125,0.28125 0.42187,0.65885 0.42188,1.13281 -10e-6,0.5651 -0.19011,0.99349 -0.57032,1.28516 -0.3776,0.29166 -0.93229,0.4375 -1.66406,0.4375 -0.27604,0 -0.57031,-0.0312 -0.88281,-0.0937 -0.3099,-0.0625 -0.63151,-0.15495 -0.96484,-0.27735 l 0,-0.8125 c 0.32031,0.17969 0.63411,0.31511 0.9414,0.40625 0.30729,0.0911 0.60938,0.13672 0.90625,0.13672 0.45052,0 0.79818,-0.0885 1.04297,-0.26562 0.24479,-0.17709 0.36718,-0.42969 0.36719,-0.75782 -1e-5,-0.28645 -0.0885,-0.51041 -0.26563,-0.67187 -0.17448,-0.16146 -0.46224,-0.28255 -0.86328,-0.36328 l -0.48047,-0.0937 c -0.58854,-0.11719 -1.01432,-0.30078 -1.27734,-0.55078 -0.26302,-0.25 -0.39453,-0.59766 -0.39453,-1.04297 0,-0.51562 0.18099,-0.92187 0.54297,-1.21875 0.36458,-0.29687 0.86588,-0.44531 1.5039,-0.44532 0.27344,10e-6 0.55208,0.0247 0.83594,0.0742 0.28385,0.0495 0.57422,0.12371 0.87109,0.22266"
           id="path12668"
           style="font-size:8px;font-variant:normal;font-stretch:normal;text-align:center;text-anchor:middle;font-family:Sans;-inkscape-font-specification:Sans" />
        <path
           d="m 310.75391,369.51257 3.35156,0 0,0.66407 -2.5625,0 0,1.71875 2.3125,0 0,0.66406 -2.3125,0 0,2.78515 -0.78906,0 0,-5.83203"
           id="path12670"
           style="font-size:8px;font-variant:normal;font-stretch:normal;text-align:center;text-anchor:middle;font-family:Sans;-inkscape-font-specification:Sans" />
        <path
           d="m 320.75781,371.63367 0,-2.36719 0.71875,0 0,6.07812 -0.71875,0 0,-0.65625 c -0.15104,0.26042 -0.34245,0.45443 -0.57422,0.58204 -0.22917,0.125 -0.50521,0.1875 -0.82812,0.1875 -0.52865,0 -0.95964,-0.21094 -1.29297,-0.63282 -0.33073,-0.42187 -0.49609,-0.97656 -0.49609,-1.66406 0,-0.6875 0.16536,-1.24218 0.49609,-1.66406 0.33333,-0.42187 0.76432,-0.63281 1.29297,-0.63281 0.32291,0 0.59895,0.0638 0.82812,0.1914 0.23177,0.12501 0.42318,0.31771 0.57422,0.57813 m -2.44922,1.52734 c 0,0.52865 0.10808,0.94401 0.32422,1.24609 0.21875,0.29948 0.51823,0.44922 0.89844,0.44922 0.38021,0 0.67968,-0.14974 0.89844,-0.44922 0.21874,-0.30208 0.32812,-0.71744 0.32812,-1.24609 0,-0.52864 -0.10938,-0.9427 -0.32812,-1.24219 -0.21876,-0.30208 -0.51823,-0.45312 -0.89844,-0.45312 -0.38021,0 -0.67969,0.15104 -0.89844,0.45312 -0.21614,0.29949 -0.32422,0.71355 -0.32422,1.24219"
           id="path12672"
           style="font-size:8px;font-variant:normal;font-stretch:normal;text-align:center;text-anchor:middle;font-family:Sans;-inkscape-font-specification:Sans" />
        <path
           d="m 324.94531,373.14539 c -0.58073,0 -0.98307,0.0664 -1.20703,0.19921 -0.22396,0.13282 -0.33594,0.35938 -0.33594,0.67969 0,0.25521 0.0833,0.45834 0.25,0.60938 0.16927,0.14844 0.39844,0.22265 0.6875,0.22265 0.39844,0 0.71745,-0.14062 0.95703,-0.42187 0.24219,-0.28385 0.36328,-0.66016 0.36329,-1.12891 l 0,-0.16015 -0.71485,0 m 1.4336,-0.29688 0,2.49609 -0.71875,0 0,-0.66406 c -0.16407,0.26563 -0.3685,0.46224 -0.61329,0.58985 -0.24479,0.125 -0.54427,0.1875 -0.89843,0.1875 -0.44792,0 -0.80469,-0.125 -1.07032,-0.375 -0.26302,-0.25261 -0.39453,-0.58985 -0.39453,-1.01172 0,-0.49219 0.16407,-0.86328 0.49219,-1.11328 0.33073,-0.25 0.82292,-0.375 1.47656,-0.375 l 1.00782,0 0,-0.0703 c -1e-5,-0.33072 -0.10938,-0.58593 -0.32813,-0.76562 -0.21615,-0.18229 -0.52083,-0.27344 -0.91406,-0.27344 -0.25,0 -0.49349,0.03 -0.73047,0.0898 -0.23698,0.0599 -0.46484,0.14975 -0.68359,0.26954 l 0,-0.66407 c 0.26302,-0.10155 0.51822,-0.17708 0.76562,-0.22656 0.2474,-0.0521 0.48828,-0.0781 0.72266,-0.0781 0.63281,0 1.10546,0.16406 1.41797,0.49218 0.31249,0.32813 0.46874,0.82553 0.46875,1.49219"
           id="path12674"
           style="font-size:8px;font-variant:normal;font-stretch:normal;text-align:center;text-anchor:middle;font-family:Sans;-inkscape-font-specification:Sans" />
        <path
           d="m 328.57422,369.72742 0,1.24218 1.48047,0 0,0.5586 -1.48047,0 0,2.375 c 0,0.35677 0.0482,0.58594 0.14453,0.6875 0.099,0.10156 0.29818,0.15234 0.59766,0.15234 l 0.73828,0 0,0.60156 -0.73828,0 c -0.55469,0 -0.93751,-0.10286 -1.14844,-0.30859 -0.21094,-0.20833 -0.31641,-0.58594 -0.31641,-1.13281 l 0,-2.375 -0.52734,0 0,-0.5586 0.52734,0 0,-1.24218 0.72266,0"
           id="path12676"
           style="font-size:8px;font-variant:normal;font-stretch:normal;text-align:center;text-anchor:middle;font-family:Sans;-inkscape-font-specification:Sans" />
        <path
           d="m 332.99219,373.14539 c -0.58073,0 -0.98308,0.0664 -1.20703,0.19921 -0.22396,0.13282 -0.33594,0.35938 -0.33594,0.67969 0,0.25521 0.0833,0.45834 0.25,0.60938 0.16927,0.14844 0.39843,0.22265 0.6875,0.22265 0.39843,0 0.71744,-0.14062 0.95703,-0.42187 0.24218,-0.28385 0.36328,-0.66016 0.36328,-1.12891 l 0,-0.16015 -0.71484,0 m 1.43359,-0.29688 0,2.49609 -0.71875,0 0,-0.66406 c -0.16406,0.26563 -0.36849,0.46224 -0.61328,0.58985 -0.24479,0.125 -0.54427,0.1875 -0.89844,0.1875 -0.44792,0 -0.80469,-0.125 -1.07031,-0.375 -0.26302,-0.25261 -0.39453,-0.58985 -0.39453,-1.01172 0,-0.49219 0.16406,-0.86328 0.49219,-1.11328 0.33072,-0.25 0.82291,-0.375 1.47656,-0.375 l 1.00781,0 0,-0.0703 c 0,-0.33072 -0.10938,-0.58593 -0.32812,-0.76562 -0.21615,-0.18229 -0.52084,-0.27344 -0.91407,-0.27344 -0.25,0 -0.49349,0.03 -0.73047,0.0898 -0.23698,0.0599 -0.46484,0.14975 -0.68359,0.26954 l 0,-0.66407 c 0.26302,-0.10155 0.51823,-0.17708 0.76563,-0.22656 0.24739,-0.0521 0.48828,-0.0781 0.72265,-0.0781 0.63281,0 1.10547,0.16406 1.41797,0.49218 0.3125,0.32813 0.46875,0.82553 0.46875,1.49219"
           id="path12678"
           style="font-size:8px;font-variant:normal;font-stretch:normal;text-align:center;text-anchor:middle;font-family:Sans;-inkscape-font-specification:Sans" />
        <path
           d="m 341.59766,373.16101 c -1e-5,-0.52864 -0.10938,-0.9427 -0.32813,-1.24219 -0.21615,-0.30208 -0.51432,-0.45312 -0.89453,-0.45312 -0.38021,0 -0.67969,0.15104 -0.89844,0.45312 -0.21614,0.29949 -0.32422,0.71355 -0.32422,1.24219 0,0.52865 0.10808,0.94401 0.32422,1.24609 0.21875,0.29948 0.51823,0.44922 0.89844,0.44922 0.38021,0 0.67838,-0.14974 0.89453,-0.44922 0.21875,-0.30208 0.32812,-0.71744 0.32813,-1.24609 m -2.44532,-1.52734 c 0.15104,-0.26042 0.34115,-0.45312 0.57032,-0.57813 0.23176,-0.1276 0.50781,-0.1914 0.82812,-0.1914 0.53125,0 0.96224,0.21094 1.29297,0.63281 0.33333,0.42188 0.5,0.97656 0.5,1.66406 0,0.6875 -0.16667,1.24219 -0.5,1.66406 -0.33073,0.42188 -0.76172,0.63282 -1.29297,0.63282 -0.32031,0 -0.59636,-0.0625 -0.82812,-0.1875 -0.22917,-0.12761 -0.41928,-0.32162 -0.57032,-0.58204 l 0,0.65625 -0.72265,0 0,-6.07812 0.72265,0 0,2.36719"
           id="path12680"
           style="font-size:8px;font-variant:normal;font-stretch:normal;text-align:center;text-anchor:middle;font-family:Sans;-inkscape-font-specification:Sans" />
        <path
           d="m 343.53516,369.26648 0.71875,0 0,6.07812 -0.71875,0 0,-6.07812"
           id="path12682"
           style="font-size:8px;font-variant:normal;font-stretch:normal;text-align:center;text-anchor:middle;font-family:Sans;-inkscape-font-specification:Sans" />
        <path
           d="m 347.44922,371.47351 c -0.38542,0 -0.69011,0.15105 -0.91406,0.45313 -0.22396,0.29948 -0.33594,0.71094 -0.33594,1.23437 0,0.52344 0.11067,0.9362 0.33203,1.23828 0.22396,0.29948 0.52995,0.44922 0.91797,0.44922 0.38281,0 0.68619,-0.15104 0.91015,-0.45312 0.22396,-0.30209 0.33594,-0.71354 0.33594,-1.23438 0,-0.51823 -0.11198,-0.92838 -0.33594,-1.23047 -0.22396,-0.30468 -0.52734,-0.45703 -0.91015,-0.45703 m 0,-0.60937 c 0.625,0 1.11588,0.20313 1.47265,0.60937 0.35677,0.40625 0.53516,0.96875 0.53516,1.6875 0,0.71615 -0.17839,1.27865 -0.53516,1.6875 -0.35677,0.40625 -0.84765,0.60938 -1.47265,0.60938 -0.62761,0 -1.11979,-0.20313 -1.47656,-0.60938 -0.35417,-0.40885 -0.53125,-0.97135 -0.53125,-1.6875 0,-0.71875 0.17708,-1.28125 0.53125,-1.6875 0.35677,-0.40624 0.84895,-0.60937 1.47656,-0.60937"
           id="path12684"
           style="font-size:8px;font-variant:normal;font-stretch:normal;text-align:center;text-anchor:middle;font-family:Sans;-inkscape-font-specification:Sans" />
        <path
           d="m 353.79297,371.13757 0,0.67188 c -0.20313,-0.11198 -0.40756,-0.19531 -0.61328,-0.25 -0.20313,-0.0573 -0.40886,-0.0859 -0.61719,-0.0859 -0.46615,0 -0.82813,0.14844 -1.08594,0.44531 -0.25781,0.29428 -0.38672,0.70834 -0.38672,1.24219 0,0.53386 0.12891,0.94922 0.38672,1.24609 0.25781,0.29428 0.61979,0.44141 1.08594,0.44141 0.20833,0 0.41406,-0.0273 0.61719,-0.082 0.20572,-0.0573 0.41015,-0.14193 0.61328,-0.25391 l 0,0.66407 c -0.20053,0.0937 -0.40886,0.16406 -0.625,0.21093 -0.21355,0.0469 -0.44141,0.0703 -0.6836,0.0703 -0.65885,0 -1.18229,-0.20704 -1.57031,-0.6211 -0.38802,-0.41406 -0.58203,-0.97265 -0.58203,-1.67578 0,-0.71354 0.19531,-1.27474 0.58594,-1.68359 0.39323,-0.40885 0.93099,-0.61328 1.61328,-0.61328 0.22135,0 0.4375,0.0234 0.64844,0.0703 0.21093,0.0443 0.41536,0.11198 0.61328,0.20312"
           id="path12686"
           style="font-size:8px;font-variant:normal;font-stretch:normal;text-align:center;text-anchor:middle;font-family:Sans;-inkscape-font-specification:Sans" />
        <path
           d="m 355.02344,369.26648 0.72265,0 0,3.58984 2.14453,-1.88672 0.91797,0 -2.32031,2.04688 2.41797,2.32812 -0.9375,0 -2.22266,-2.13671 0,2.13671 -0.72265,0 0,-6.07812"
           id="path12688"
           style="font-size:8px;font-variant:normal;font-stretch:normal;text-align:center;text-anchor:middle;font-family:Sans;-inkscape-font-specification:Sans" />
        <path
           d="m 362.48047,371.09851 0,0.67969 c -0.20313,-0.10416 -0.41407,-0.18229 -0.63281,-0.23438 -0.21876,-0.0521 -0.44532,-0.0781 -0.67969,-0.0781 -0.35677,0 -0.625,0.0547 -0.80469,0.16406 -0.17708,0.10938 -0.26562,0.27344 -0.26562,0.49219 0,0.16667 0.0638,0.29818 0.1914,0.39453 0.12761,0.0937 0.38412,0.1836 0.76953,0.26953 l 0.2461,0.0547 c 0.51041,0.10938 0.87239,0.26432 1.08593,0.46484 0.21615,0.19792 0.32422,0.47526 0.32422,0.83203 0,0.40625 -0.16146,0.72787 -0.48437,0.96485 -0.32032,0.23698 -0.76172,0.35547 -1.32422,0.35547 -0.23438,0 -0.47917,-0.0234 -0.73438,-0.0703 -0.2526,-0.0443 -0.51953,-0.11198 -0.80078,-0.20312 l 0,-0.74219 c 0.26563,0.13802 0.52735,0.24219 0.78516,0.3125 0.25781,0.0677 0.51302,0.10156 0.76562,0.10156 0.33854,0 0.59896,-0.0573 0.78125,-0.17187 0.18229,-0.11719 0.27344,-0.28125 0.27344,-0.49219 0,-0.19531 -0.0664,-0.34505 -0.19922,-0.44922 -0.13021,-0.10416 -0.41797,-0.20442 -0.86328,-0.30078 l -0.25,-0.0586 c -0.44531,-0.0937 -0.76693,-0.23698 -0.96484,-0.42969 -0.19792,-0.19531 -0.29688,-0.46224 -0.29688,-0.80078 0,-0.41146 0.14584,-0.72916 0.4375,-0.95313 0.29167,-0.22395 0.70573,-0.33593 1.24219,-0.33593 0.26562,0 0.51562,0.0195 0.75,0.0586 0.23437,0.0391 0.45052,0.0977 0.64844,0.17578"
           id="path12690"
           style="font-size:8px;font-variant:normal;font-stretch:normal;text-align:center;text-anchor:middle;font-family:Sans;-inkscape-font-specification:Sans" />
      </g>
    </g>
    <path
       d="m 112.36609,461.4241 314.99997,0 0,255.00002 -314.99997,0 z"
       id="rect2991-69-0-7-7-8-7"
       style="fill:none;stroke:#000000;stroke-width:0.99999988;stroke-opacity:1" />
    <g
       id="text2985-2-5-5-4-2-1-8-5-3-5"
       style="font-size:40px;font-style:normal;font-weight:normal;line-height:125%;letter-spacing:0px;word-spacing:0px;fill:#000000;fill-opacity:1;stroke:none;font-family:Sans">
      <path
         d="m 128.94028,476.24051 0,4.53516 0.95312,0 c 0.80469,0 1.39323,-0.1823 1.76563,-0.54688 0.37499,-0.36458 0.56249,-0.9401 0.5625,-1.72656 -1e-5,-0.78125 -0.18751,-1.35286 -0.5625,-1.71485 -0.3724,-0.36457 -0.96094,-0.54687 -1.76563,-0.54687 l -0.95312,0 m -0.78907,-0.64844 1.6211,0 c 1.1302,1e-5 1.95963,0.23568 2.48828,0.70703 0.52864,0.46876 0.79296,1.20313 0.79297,2.20313 -1e-5,1.00521 -0.26563,1.74349 -0.79688,2.21484 -0.53125,0.47136 -1.35938,0.70703 -2.48437,0.70703 l -1.6211,0 0,-5.83203"
         id="path12694"
         style="font-size:8px;font-variant:normal;font-stretch:normal;text-align:start;text-anchor:start;font-family:Sans;-inkscape-font-specification:Sans" />
      <path
         d="m 134.27621,477.0491 0.71875,0 0,4.375 -0.71875,0 0,-4.375 m 0,-1.70312 0.71875,0 0,0.91015 -0.71875,0 0,-0.91015"
         id="path12696"
         style="font-size:8px;font-variant:normal;font-stretch:normal;text-align:start;text-anchor:start;font-family:Sans;-inkscape-font-specification:Sans" />
      <path
         d="m 139.28403,477.17801 0,0.67969 c -0.20313,-0.10417 -0.41407,-0.18229 -0.63282,-0.23438 -0.21875,-0.0521 -0.44531,-0.0781 -0.67968,-0.0781 -0.35678,0 -0.625,0.0547 -0.80469,0.16406 -0.17708,0.10938 -0.26563,0.27344 -0.26563,0.49219 0,0.16667 0.0638,0.29818 0.19141,0.39453 0.1276,0.0937 0.38411,0.18359 0.76953,0.26953 l 0.2461,0.0547 c 0.51041,0.10937 0.87239,0.26432 1.08593,0.46484 0.21615,0.19792 0.32422,0.47526 0.32422,0.83203 0,0.40625 -0.16146,0.72787 -0.48437,0.96485 -0.32032,0.23697 -0.76172,0.35546 -1.32422,0.35546 -0.23438,0 -0.47917,-0.0234 -0.73438,-0.0703 -0.2526,-0.0443 -0.51953,-0.11198 -0.80078,-0.20312 l 0,-0.74219 c 0.26563,0.13802 0.52734,0.24219 0.78516,0.3125 0.25781,0.0677 0.51302,0.10156 0.76562,0.10156 0.33854,0 0.59896,-0.0573 0.78125,-0.17187 0.18229,-0.11719 0.27344,-0.28125 0.27344,-0.49219 0,-0.19531 -0.0664,-0.34505 -0.19922,-0.44922 -0.13021,-0.10416 -0.41797,-0.20442 -0.86328,-0.30078 l -0.25,-0.0586 c -0.44531,-0.0937 -0.76693,-0.23698 -0.96484,-0.42969 -0.19792,-0.19531 -0.29688,-0.46224 -0.29688,-0.80078 0,-0.41146 0.14583,-0.72917 0.4375,-0.95313 0.29167,-0.22395 0.70573,-0.33593 1.24219,-0.33594 0.26562,10e-6 0.51562,0.0195 0.75,0.0586 0.23437,0.0391 0.45052,0.0977 0.64844,0.17578"
         id="path12698"
         style="font-size:8px;font-variant:normal;font-stretch:normal;text-align:start;text-anchor:start;font-family:Sans;-inkscape-font-specification:Sans" />
      <path
         d="m 141.37778,475.80692 0,1.24218 1.48047,0 0,0.5586 -1.48047,0 0,2.375 c 0,0.35677 0.0482,0.58593 0.14453,0.6875 0.099,0.10156 0.29817,0.15234 0.59765,0.15234 l 0.73829,0 0,0.60156 -0.73829,0 c -0.55468,0 -0.9375,-0.10286 -1.14843,-0.30859 -0.21094,-0.20833 -0.31641,-0.58594 -0.31641,-1.13281 l 0,-2.375 -0.52734,0 0,-0.5586 0.52734,0 0,-1.24218 0.72266,0"
         id="path12700"
         style="font-size:8px;font-variant:normal;font-stretch:normal;text-align:start;text-anchor:start;font-family:Sans;-inkscape-font-specification:Sans" />
      <path
         d="m 146.34262,477.72098 c -0.0807,-0.0469 -0.16927,-0.0807 -0.26562,-0.10156 -0.0938,-0.0234 -0.19792,-0.0352 -0.3125,-0.0352 -0.40626,0 -0.71876,0.13282 -0.9375,0.39844 -0.21615,0.26302 -0.32422,0.64193 -0.32422,1.13672 l 0,2.30468 -0.72266,0 0,-4.375 0.72266,0 0,0.67969 c 0.15104,-0.26562 0.34765,-0.46224 0.58984,-0.58984 0.24219,-0.13021 0.53646,-0.19531 0.88281,-0.19532 0.0495,1e-5 0.10417,0.004 0.16407,0.0117 0.0599,0.005 0.12629,0.0143 0.19921,0.0274 l 0.004,0.73828"
         id="path12702"
         style="font-size:8px;font-variant:normal;font-stretch:normal;text-align:start;text-anchor:start;font-family:Sans;-inkscape-font-specification:Sans" />
      <path
         d="m 147.10434,477.0491 0.71875,0 0,4.375 -0.71875,0 0,-4.375 m 0,-1.70312 0.71875,0 0,0.91015 -0.71875,0 0,-0.91015"
         id="path12704"
         style="font-size:8px;font-variant:normal;font-stretch:normal;text-align:start;text-anchor:start;font-family:Sans;-inkscape-font-specification:Sans" />
      <path
         d="m 152.46371,479.24051 c 0,-0.52864 -0.10937,-0.94271 -0.32812,-1.24219 -0.21615,-0.30208 -0.51433,-0.45312 -0.89453,-0.45312 -0.38021,0 -0.67969,0.15104 -0.89844,0.45312 -0.21615,0.29948 -0.32422,0.71355 -0.32422,1.24219 0,0.52865 0.10807,0.94401 0.32422,1.24609 0.21875,0.29948 0.51823,0.44922 0.89844,0.44922 0.3802,0 0.67838,-0.14974 0.89453,-0.44922 0.21875,-0.30208 0.32812,-0.71744 0.32812,-1.24609 m -2.44531,-1.52734 c 0.15104,-0.26042 0.34115,-0.45313 0.57031,-0.57813 0.23177,-0.1276 0.50781,-0.1914 0.82813,-0.19141 0.53125,1e-5 0.96224,0.21095 1.29297,0.63282 0.33333,0.42187 0.49999,0.97656 0.5,1.66406 -1e-5,0.6875 -0.16667,1.24219 -0.5,1.66406 -0.33073,0.42188 -0.76172,0.63281 -1.29297,0.63281 -0.32032,0 -0.59636,-0.0625 -0.82813,-0.1875 -0.22916,-0.1276 -0.41927,-0.32161 -0.57031,-0.58203 l 0,0.65625 -0.72265,0 0,-6.07812 0.72265,0 0,2.36719"
         id="path12706"
         style="font-size:8px;font-variant:normal;font-stretch:normal;text-align:start;text-anchor:start;font-family:Sans;-inkscape-font-specification:Sans" />
      <path
         d="m 154.327,479.69754 0,-2.64844 0.71875,0 0,2.6211 c -1e-5,0.41406 0.0807,0.72526 0.24218,0.93359 0.16146,0.20573 0.40365,0.30859 0.72657,0.30859 0.38801,0 0.694,-0.12369 0.91796,-0.37109 0.22656,-0.24739 0.33984,-0.58463 0.33985,-1.01172 l 0,-2.48047 0.71875,0 0,4.375 -0.71875,0 0,-0.67187 c -0.17448,0.26562 -0.37761,0.46354 -0.60938,0.59375 -0.22917,0.1276 -0.49609,0.1914 -0.80078,0.1914 -0.5026,0 -0.88411,-0.15625 -1.14453,-0.46875 -0.26042,-0.3125 -0.39062,-0.76953 -0.39062,-1.37109 m 1.80859,-2.75391 0,0"
         id="path12708"
         style="font-size:8px;font-variant:normal;font-stretch:normal;text-align:start;text-anchor:start;font-family:Sans;-inkscape-font-specification:Sans" />
      <path
         d="m 160.19028,475.80692 0,1.24218 1.48047,0 0,0.5586 -1.48047,0 0,2.375 c 0,0.35677 0.0482,0.58593 0.14453,0.6875 0.099,0.10156 0.29817,0.15234 0.59765,0.15234 l 0.73829,0 0,0.60156 -0.73829,0 c -0.55468,0 -0.9375,-0.10286 -1.14843,-0.30859 -0.21094,-0.20833 -0.31641,-0.58594 -0.31641,-1.13281 l 0,-2.375 -0.52734,0 0,-0.5586 0.52734,0 0,-1.24218 0.72266,0"
         id="path12710"
         style="font-size:8px;font-variant:normal;font-stretch:normal;text-align:start;text-anchor:start;font-family:Sans;-inkscape-font-specification:Sans" />
      <path
         d="m 166.36215,479.05692 0,0.35156 -3.30469,0 c 0.0312,0.49479 0.17969,0.87239 0.44532,1.13281 0.26822,0.25781 0.64062,0.38672 1.11718,0.38672 0.27604,0 0.54297,-0.0338 0.80079,-0.10156 0.26041,-0.0677 0.51822,-0.16927 0.77343,-0.30469 l 0,0.67969 c -0.25781,0.10937 -0.52214,0.1927 -0.79297,0.25 -0.27083,0.0573 -0.54557,0.0859 -0.82421,0.0859 -0.69792,0 -1.25131,-0.20312 -1.66016,-0.60937 -0.40625,-0.40625 -0.60938,-0.95573 -0.60938,-1.64844 0,-0.71614 0.19271,-1.28385 0.57813,-1.70312 0.38802,-0.42187 0.91015,-0.63281 1.56641,-0.63282 0.58853,10e-6 1.05338,0.19011 1.39453,0.57032 0.34374,0.3776 0.51562,0.89193 0.51562,1.54297 m -0.71875,-0.21094 c -0.005,-0.39323 -0.11589,-0.70703 -0.33203,-0.94141 -0.21354,-0.23437 -0.4974,-0.35156 -0.85156,-0.35156 -0.40105,0 -0.72266,0.11328 -0.96485,0.33984 -0.23958,0.22657 -0.3776,0.54558 -0.41406,0.95703 l 2.5625,-0.004"
         id="path12712"
         style="font-size:8px;font-variant:normal;font-stretch:normal;text-align:start;text-anchor:start;font-family:Sans;-inkscape-font-specification:Sans" />
      <path
         d="m 170.42075,477.71317 0,-2.36719 0.71875,0 0,6.07812 -0.71875,0 0,-0.65625 c -0.15105,0.26042 -0.34246,0.45443 -0.57422,0.58203 -0.22917,0.125 -0.50521,0.1875 -0.82813,0.1875 -0.52865,0 -0.95963,-0.21093 -1.29297,-0.63281 -0.33073,-0.42187 -0.49609,-0.97656 -0.49609,-1.66406 0,-0.6875 0.16536,-1.24219 0.49609,-1.66406 0.33334,-0.42187 0.76432,-0.63281 1.29297,-0.63282 0.32292,1e-5 0.59896,0.0638 0.82813,0.19141 0.23176,0.125 0.42317,0.31771 0.57422,0.57813 m -2.44922,1.52734 c 0,0.52865 0.10807,0.94401 0.32422,1.24609 0.21874,0.29948 0.51822,0.44922 0.89843,0.44922 0.38021,0 0.67969,-0.14974 0.89844,-0.44922 0.21875,-0.30208 0.32812,-0.71744 0.32813,-1.24609 -1e-5,-0.52864 -0.10938,-0.94271 -0.32813,-1.24219 -0.21875,-0.30208 -0.51823,-0.45312 -0.89844,-0.45312 -0.38021,0 -0.67969,0.15104 -0.89843,0.45312 -0.21615,0.29948 -0.32422,0.71355 -0.32422,1.24219"
         id="path12714"
         style="font-size:8px;font-variant:normal;font-stretch:normal;text-align:start;text-anchor:start;font-family:Sans;-inkscape-font-specification:Sans" />
      <path
         d="m 174.91684,475.59207 0.84766,0 1.44921,2.16797 1.45704,-2.16797 0.84765,0 -1.875,2.80078 2,3.03125 -0.84765,0 -1.64063,-2.48047 -1.65234,2.48047 -0.85157,0 2.08204,-3.11328 -1.81641,-2.71875"
         id="path12716"
         style="font-size:8px;font-variant:normal;font-stretch:normal;text-align:start;text-anchor:start;font-family:Sans;-inkscape-font-specification:Sans" />
      <path
         d="m 180.68246,475.59207 0.78907,0 0,5.83203 -0.78907,0 0,-5.83203"
         id="path12718"
         style="font-size:8px;font-variant:normal;font-stretch:normal;text-align:start;text-anchor:start;font-family:Sans;-inkscape-font-specification:Sans" />
      <path
         d="m 186.53793,475.78348 0,0.76953 c -0.29948,-0.14323 -0.58203,-0.25 -0.84765,-0.32031 -0.26563,-0.0703 -0.52214,-0.10547 -0.76953,-0.10547 -0.42969,0 -0.76172,0.0833 -0.9961,0.25 -0.23177,0.16667 -0.34766,0.40365 -0.34765,0.71094 -1e-5,0.25781 0.0768,0.45312 0.23046,0.58593 0.15625,0.13021 0.45052,0.23568 0.88282,0.31641 l 0.47656,0.0977 c 0.58854,0.11198 1.02213,0.30989 1.30078,0.59375 0.28125,0.28125 0.42187,0.65885 0.42188,1.13281 -1e-5,0.5651 -0.19011,0.99349 -0.57032,1.28515 -0.3776,0.29167 -0.93229,0.4375 -1.66406,0.4375 -0.27604,0 -0.57031,-0.0312 -0.88281,-0.0937 -0.3099,-0.0625 -0.63151,-0.15494 -0.96485,-0.27734 l 0,-0.8125 c 0.32032,0.17969 0.63412,0.31511 0.94141,0.40625 0.30729,0.0911 0.60937,0.13672 0.90625,0.13672 0.45052,0 0.79817,-0.0885 1.04297,-0.26563 0.24479,-0.17708 0.36718,-0.42968 0.36719,-0.75781 -1e-5,-0.28645 -0.0885,-0.51041 -0.26563,-0.67187 -0.17448,-0.16146 -0.46224,-0.28255 -0.86328,-0.36328 l -0.48047,-0.0937 c -0.58854,-0.11719 -1.01432,-0.30078 -1.27734,-0.55079 -0.26302,-0.24999 -0.39453,-0.59765 -0.39453,-1.04296 0,-0.51562 0.18099,-0.92187 0.54297,-1.21875 0.36458,-0.29687 0.86588,-0.44531 1.5039,-0.44532 0.27344,10e-6 0.55208,0.0247 0.83594,0.0742 0.28385,0.0495 0.57421,0.12371 0.87109,0.22266"
         id="path12720"
         style="font-size:8px;font-variant:normal;font-stretch:normal;text-align:start;text-anchor:start;font-family:Sans;-inkscape-font-specification:Sans" />
      <path
         d="m 188.11996,475.59207 3.35157,0 0,0.66406 -2.5625,0 0,1.71875 2.3125,0 0,0.66407 -2.3125,0 0,2.78515 -0.78907,0 0,-5.83203"
         id="path12722"
         style="font-size:8px;font-variant:normal;font-stretch:normal;text-align:start;text-anchor:start;font-family:Sans;-inkscape-font-specification:Sans" />
      <path
         d="m 195.18637,475.59207 0.79297,0 0,3.54297 c 0,0.625 0.11328,1.07552 0.33984,1.35156 0.22656,0.27344 0.59375,0.41016 1.10157,0.41016 0.5052,0 0.87109,-0.13672 1.09765,-0.41016 0.22656,-0.27604 0.33984,-0.72656 0.33985,-1.35156 l 0,-3.54297 0.79296,0 0,3.64063 c 0,0.76041 -0.1888,1.33463 -0.5664,1.72265 -0.37501,0.38802 -0.92969,0.58203 -1.66406,0.58203 -0.73699,0 -1.29428,-0.19401 -1.67188,-0.58203 -0.375,-0.38802 -0.5625,-0.96224 -0.5625,-1.72265 l 0,-3.64063"
         id="path12724"
         style="font-size:8px;font-variant:normal;font-stretch:normal;text-align:start;text-anchor:start;font-family:Sans;-inkscape-font-specification:Sans" />
      <path
         d="m 204.74106,478.78348 0,2.64062 -0.71875,0 0,-2.61718 c -1e-5,-0.41406 -0.0807,-0.72396 -0.24219,-0.92969 -0.16146,-0.20573 -0.40365,-0.30859 -0.72656,-0.3086 -0.38802,1e-5 -0.69401,0.12371 -0.91797,0.3711 -0.22396,0.2474 -0.33594,0.58464 -0.33594,1.01172 l 0,2.47265 -0.72265,0 0,-4.375 0.72265,0 0,0.67969 c 0.17188,-0.26302 0.3737,-0.45963 0.60547,-0.58984 0.23437,-0.13021 0.5039,-0.19531 0.80859,-0.19532 0.50261,1e-5 0.88281,0.15626 1.14063,0.46875 0.25781,0.3099 0.38671,0.76693 0.38672,1.3711"
         id="path12726"
         style="font-size:8px;font-variant:normal;font-stretch:normal;text-align:start;text-anchor:start;font-family:Sans;-inkscape-font-specification:Sans" />
      <path
         d="m 206.18246,477.0491 0.71875,0 0,4.375 -0.71875,0 0,-4.375 m 0,-1.70312 0.71875,0 0,0.91015 -0.71875,0 0,-0.91015"
         id="path12728"
         style="font-size:8px;font-variant:normal;font-stretch:normal;text-align:start;text-anchor:start;font-family:Sans;-inkscape-font-specification:Sans" />
      <path
         d="m 209.11215,475.80692 0,1.24218 1.48047,0 0,0.5586 -1.48047,0 0,2.375 c 0,0.35677 0.0482,0.58593 0.14453,0.6875 0.099,0.10156 0.29818,0.15234 0.59766,0.15234 l 0.73828,0 0,0.60156 -0.73828,0 c -0.55469,0 -0.9375,-0.10286 -1.14844,-0.30859 -0.21094,-0.20833 -0.3164,-0.58594 -0.3164,-1.13281 l 0,-2.375 -0.52735,0 0,-0.5586 0.52735,0 0,-1.24218 0.72265,0"
         id="path12730"
         style="font-size:8px;font-variant:normal;font-stretch:normal;text-align:start;text-anchor:start;font-family:Sans;-inkscape-font-specification:Sans" />
    </g>
  </g>
</svg>
