<?xml version="1.0" encoding="UTF-8" standalone="no"?>
<!-- Created with Inkscape (http://www.inkscape.org/) -->

<svg
   xmlns:dc="http://purl.org/dc/elements/1.1/"
   xmlns:cc="http://creativecommons.org/ns#"
   xmlns:rdf="http://www.w3.org/1999/02/22-rdf-syntax-ns#"
   xmlns:svg="http://www.w3.org/2000/svg"
   xmlns="http://www.w3.org/2000/svg"
   version="1.1"
   width="315.99997"
   height="256"
   id="svg4172">
  <defs
     id="defs4174">
    <marker
       refX="0"
       refY="0"
       orient="auto"
       id="marker7539"
       style="overflow:visible">
      <path
         d="M 8.7185878,4.0337352 -2.2072895,0.01601326 8.7185884,-4.0017078 c -1.7454984,2.3720609 -1.7354408,5.6174519 -6e-7,8.035443 z"
         transform="matrix(-1.1,0,0,-1.1,-1.1,0)"
         id="path7541"
         style="fill-rule:evenodd;stroke-width:0.625;stroke-linejoin:round" />
    </marker>
    <marker
       refX="0"
       refY="0"
       orient="auto"
       id="marker4142"
       style="overflow:visible">
      <path
         d="M 8.7185878,4.0337352 -2.2072895,0.01601326 8.7185884,-4.0017078 c -1.7454984,2.3720609 -1.7354408,5.6174519 -6e-7,8.035443 z"
         transform="matrix(-1.1,0,0,-1.1,-1.1,0)"
         id="path4144"
         style="fill-rule:evenodd;stroke-width:0.625;stroke-linejoin:round" />
    </marker>
    <marker
       refX="0"
       refY="0"
       orient="auto"
       id="marker4146"
       style="overflow:visible">
      <path
         d="M 8.7185878,4.0337352 -2.2072895,0.01601326 8.7185884,-4.0017078 c -1.7454984,2.3720609 -1.7354408,5.6174519 -6e-7,8.035443 z"
         transform="matrix(-1.1,0,0,-1.1,-1.1,0)"
         id="path4148"
         style="fill-rule:evenodd;stroke-width:0.625;stroke-linejoin:round" />
    </marker>
  </defs>
  <metadata
     id="metadata4177">
    <rdf:RDF>
      <cc:Work
         rdf:about="">
        <dc:format>image/svg+xml</dc:format>
        <dc:type
           rdf:resource="http://purl.org/dc/dcmitype/StillImage" />
        <dc:title></dc:title>
      </cc:Work>
    </rdf:RDF>
  </metadata>
  <g
     transform="translate(-482.00003,-361.50504)"
     id="layer1">
    <g
       id="g4241">
      <path
         d="m 572.5,512.005 100,0 0,20 -100,0 z"
         id="rect2991-5-0"
         style="fill:#000000;fill-opacity:0.11764706;stroke:#000000;stroke-width:0.99999988;stroke-opacity:1" />
      <path
         d="m 572.5,432.00504 100,0 0,20 -100,0 z"
         id="rect2991-56-4"
         style="fill:#000000;fill-opacity:0.05882353;stroke:#000000;stroke-width:1;stroke-opacity:1" />
      <path
         d="m 572.5,452.00504 100,0 0,60 -100,0 z"
         id="rect2991-56-3-9"
         style="fill:#000000;fill-opacity:0.05882353;stroke:#000000;stroke-width:1;stroke-opacity:1" />
      <path
         d="m 572.5,532.005 100,0 0,20 -100,0 z"
         id="rect2991-5-2-1"
         style="fill:#000000;fill-opacity:0.11764706;stroke:#000000;stroke-width:0.99999988;stroke-opacity:1" />
      <path
         d="m 572.5,572.005 100,0 0,20 -100,0 z"
         id="rect2991-56-3-1-1-5-8-37"
         style="fill:#000000;fill-opacity:0.11764706;stroke:#000000;stroke-width:0.99999994;stroke-opacity:1" />
      <g
         id="text2985-50-3-7"
         style="font-size:40px;font-style:normal;font-weight:normal;line-height:125%;letter-spacing:0px;word-spacing:0px;fill:#000000;fill-opacity:1;stroke:none;font-family:Sans">
        <path
           d="m 598.2793,479.15543 0.84765,0 1.44922,2.16796 1.45703,-2.16796 0.84766,0 -1.875,2.80078 2,3.03125 -0.84766,0 -1.64062,-2.48047 -1.65235,2.48047 -0.85156,0 2.08203,-3.11328 -1.8164,-2.71875"
           id="path4271"
           style="font-size:8px" />
        <path
           d="m 604.04492,479.15543 0.78906,0 0,5.83203 -0.78906,0 0,-5.83203"
           id="path4273"
           style="font-size:8px" />
        <path
           d="m 609.90039,479.34683 0,0.76953 c -0.29948,-0.14322 -0.58203,-0.24999 -0.84766,-0.32031 -0.26562,-0.0703 -0.52213,-0.10546 -0.76953,-0.10547 -0.42969,10e-6 -0.76172,0.0833 -0.99609,0.25 -0.23177,0.16667 -0.34766,0.40365 -0.34766,0.71094 0,0.25782 0.0768,0.45313 0.23047,0.58594 0.15625,0.13021 0.45052,0.23568 0.88281,0.3164 l 0.47657,0.0977 c 0.58854,0.11198 1.02213,0.3099 1.30078,0.59375 0.28124,0.28125 0.42187,0.65886 0.42187,1.13281 0,0.56511 -0.19011,0.99349 -0.57031,1.28516 -0.37761,0.29167 -0.93229,0.4375 -1.66406,0.4375 -0.27605,0 -0.57032,-0.0312 -0.88281,-0.0937 -0.3099,-0.0625 -0.63152,-0.15495 -0.96485,-0.27735 l 0,-0.8125 c 0.32031,0.17969 0.63412,0.31511 0.94141,0.40625 0.30729,0.0911 0.60937,0.13672 0.90625,0.13672 0.45052,0 0.79817,-0.0885 1.04297,-0.26562 0.24478,-0.17708 0.36718,-0.42969 0.36718,-0.75781 0,-0.28646 -0.0885,-0.51042 -0.26562,-0.67188 -0.17448,-0.16145 -0.46224,-0.28255 -0.86328,-0.36328 l -0.48047,-0.0937 c -0.58854,-0.11718 -1.01432,-0.30078 -1.27734,-0.55078 -0.26303,-0.25 -0.39454,-0.59765 -0.39454,-1.04297 0,-0.51562 0.18099,-0.92187 0.54297,-1.21875 0.36459,-0.29687 0.86589,-0.44531 1.50391,-0.44531 0.27343,0 0.55208,0.0247 0.83594,0.0742 0.28385,0.0495 0.57421,0.1237 0.87109,0.22265"
           id="path4275"
           style="font-size:8px" />
        <path
           d="m 611.48242,479.15543 3.35156,0 0,0.66406 -2.5625,0 0,1.71875 2.3125,0 0,0.66406 -2.3125,0 0,2.78516 -0.78906,0 0,-5.83203"
           id="path4277"
           style="font-size:8px" />
        <path
           d="m 618.63867,479.15543 0.78906,0 0,2.39062 2.86719,0 0,-2.39062 0.78906,0 0,5.83203 -0.78906,0 0,-2.77735 -2.86719,0 0,2.77735 -0.78906,0 0,-5.83203"
           id="path4279"
           style="font-size:8px" />
        <path
           d="m 628.36523,482.62027 0,0.35156 -3.30468,0 c 0.0312,0.4948 0.17968,0.8724 0.44531,1.13281 0.26823,0.25782 0.64062,0.38672 1.11719,0.38672 0.27604,0 0.54296,-0.0338 0.80078,-0.10156 0.26041,-0.0677 0.51822,-0.16927 0.77344,-0.30469 l 0,0.67969 c -0.25782,0.10938 -0.52214,0.19271 -0.79297,0.25 -0.27084,0.0573 -0.54558,0.0859 -0.82422,0.0859 -0.69792,0 -1.25131,-0.20313 -1.66016,-0.60938 -0.40625,-0.40625 -0.60937,-0.95572 -0.60937,-1.64843 0,-0.71615 0.1927,-1.28385 0.57812,-1.70313 0.38802,-0.42187 0.91016,-0.63281 1.56641,-0.63281 0.58854,0 1.05338,0.19011 1.39453,0.57031 0.34375,0.37761 0.51562,0.89193 0.51562,1.54297 m -0.71875,-0.21094 c -0.005,-0.39322 -0.11588,-0.70703 -0.33203,-0.9414 -0.21354,-0.23438 -0.4974,-0.35156 -0.85156,-0.35157 -0.40104,1e-5 -0.72266,0.11329 -0.96484,0.33985 -0.23959,0.22656 -0.37761,0.54557 -0.41407,0.95703 l 2.5625,-0.004"
           id="path4281"
           style="font-size:8px" />
        <path
           d="m 631.5332,482.78824 c -0.58073,0 -0.98307,0.0664 -1.20703,0.19922 -0.22396,0.13281 -0.33594,0.35937 -0.33594,0.67968 0,0.25521 0.0833,0.45834 0.25,0.60938 0.16927,0.14844 0.39844,0.22266 0.6875,0.22266 0.39844,0 0.71745,-0.14063 0.95704,-0.42188 0.24218,-0.28385 0.36327,-0.66015 0.36328,-1.12891 l 0,-0.16015 -0.71485,0 m 1.4336,-0.29688 0,2.4961 -0.71875,0 0,-0.66407 c -0.16407,0.26563 -0.3685,0.46224 -0.61328,0.58985 -0.2448,0.125 -0.54428,0.1875 -0.89844,0.1875 -0.44792,0 -0.80469,-0.125 -1.07031,-0.375 -0.26303,-0.25261 -0.39454,-0.58984 -0.39454,-1.01172 0,-0.49219 0.16407,-0.86328 0.49219,-1.11328 0.33073,-0.25 0.82292,-0.375 1.47656,-0.375 l 1.00782,0 0,-0.0703 c -1e-5,-0.33073 -0.10938,-0.58594 -0.32813,-0.76563 -0.21615,-0.18229 -0.52083,-0.27343 -0.91406,-0.27344 -0.25,10e-6 -0.49349,0.03 -0.73047,0.0899 -0.23698,0.0599 -0.46484,0.14974 -0.68359,0.26953 l 0,-0.66406 c 0.26302,-0.10156 0.51822,-0.17708 0.76562,-0.22657 0.2474,-0.0521 0.48828,-0.0781 0.72266,-0.0781 0.63281,0 1.10546,0.16407 1.41797,0.49219 0.31249,0.32812 0.46874,0.82552 0.46875,1.49218"
           id="path4283"
           style="font-size:8px" />
        <path
           d="m 637.33008,481.27652 0,-2.36719 0.71875,0 0,6.07813 -0.71875,0 0,-0.65625 c -0.15105,0.26041 -0.34245,0.45442 -0.57422,0.58203 -0.22917,0.125 -0.50521,0.1875 -0.82813,0.1875 -0.52864,0 -0.95963,-0.21094 -1.29296,-0.63281 -0.33073,-0.42188 -0.4961,-0.97656 -0.4961,-1.66407 0,-0.68749 0.16537,-1.24218 0.4961,-1.66406 0.33333,-0.42187 0.76432,-0.63281 1.29296,-0.63281 0.32292,0 0.59896,0.0638 0.82813,0.1914 0.23177,0.12501 0.42317,0.31772 0.57422,0.57813 m -2.44922,1.52734 c 0,0.52865 0.10807,0.94402 0.32422,1.2461 0.21875,0.29948 0.51823,0.44922 0.89844,0.44922 0.3802,0 0.67968,-0.14974 0.89843,-0.44922 0.21875,-0.30208 0.32812,-0.71745 0.32813,-1.2461 -10e-6,-0.52864 -0.10938,-0.9427 -0.32813,-1.24218 -0.21875,-0.30208 -0.51823,-0.45313 -0.89843,-0.45313 -0.38021,0 -0.67969,0.15105 -0.89844,0.45313 -0.21615,0.29948 -0.32422,0.71354 -0.32422,1.24218"
           id="path4285"
           style="font-size:8px" />
        <path
           d="m 643.27148,482.62027 0,0.35156 -3.30468,0 c 0.0312,0.4948 0.17968,0.8724 0.44531,1.13281 0.26823,0.25782 0.64062,0.38672 1.11719,0.38672 0.27604,0 0.54296,-0.0338 0.80078,-0.10156 0.26041,-0.0677 0.51822,-0.16927 0.77344,-0.30469 l 0,0.67969 c -0.25782,0.10938 -0.52214,0.19271 -0.79297,0.25 -0.27084,0.0573 -0.54558,0.0859 -0.82422,0.0859 -0.69792,0 -1.25131,-0.20313 -1.66016,-0.60938 -0.40625,-0.40625 -0.60937,-0.95572 -0.60937,-1.64843 0,-0.71615 0.1927,-1.28385 0.57812,-1.70313 0.38802,-0.42187 0.91016,-0.63281 1.56641,-0.63281 0.58854,0 1.05338,0.19011 1.39453,0.57031 0.34375,0.37761 0.51562,0.89193 0.51562,1.54297 m -0.71875,-0.21094 c -0.005,-0.39322 -0.11588,-0.70703 -0.33203,-0.9414 -0.21354,-0.23438 -0.4974,-0.35156 -0.85156,-0.35157 -0.40104,1e-5 -0.72266,0.11329 -0.96484,0.33985 -0.23959,0.22656 -0.37761,0.54557 -0.41407,0.95703 l 2.5625,-0.004"
           id="path4287"
           style="font-size:8px" />
        <path
           d="m 646.98633,481.28433 c -0.0807,-0.0469 -0.16928,-0.0807 -0.26563,-0.10156 -0.0937,-0.0234 -0.19792,-0.0351 -0.3125,-0.0352 -0.40625,1e-5 -0.71875,0.13282 -0.9375,0.39844 -0.21614,0.26303 -0.32422,0.64193 -0.32422,1.13672 l 0,2.30469 -0.72265,0 0,-4.375 0.72265,0 0,0.67968 c 0.15104,-0.26562 0.34766,-0.46223 0.58985,-0.58984 0.24218,-0.1302 0.53645,-0.19531 0.88281,-0.19531 0.0495,0 0.10416,0.004 0.16406,0.0117 0.0599,0.005 0.1263,0.0143 0.19922,0.0273 l 0.004,0.73828"
           id="path4289"
           style="font-size:8px" />
      </g>
      <g
         id="text3083-8-3"
         style="font-size:40px;font-style:normal;font-weight:normal;line-height:125%;letter-spacing:0px;word-spacing:0px;fill:#000000;fill-opacity:1;stroke:none;font-family:Sans">
        <path
           d="m 621.77881,566.5675 1.44238,0 0,1.73633 -1.44238,0 0,-1.73633 m 0,-9.57031 1.44238,0 0,1.73633 -1.44238,0 0,-1.73633 m 0,4.78516 1.44238,0 0,1.73633 -1.44238,0 0,-1.73633"
           id="path4292"
           style="font-size:14px" />
      </g>
      <g
         id="text2985-2-5-5-4-2-1-8-5"
         style="font-size:40px;font-style:normal;font-weight:normal;line-height:125%;letter-spacing:0px;word-spacing:0px;fill:#000000;fill-opacity:1;stroke:none;font-family:Sans">
        <path
           d="m 584.57422,416.173 1.17578,0 1.48828,3.96875 1.49609,-3.96875 1.17579,0 0,5.83204 -0.76954,0 0,-5.1211 -1.5039,4 -0.79297,0 -1.50391,-4 0,5.1211 -0.76562,0 0,-5.83204"
           id="path4295"
           style="font-size:8px;font-variant:normal;font-stretch:normal;text-align:center;text-anchor:middle;font-family:Sans;-inkscape-font-specification:Sans" />
        <path
           d="m 593.14453,418.13394 c -0.38542,1e-5 -0.6901,0.15105 -0.91406,0.45313 -0.22396,0.29948 -0.33594,0.71094 -0.33594,1.23437 0,0.52344 0.11068,0.9362 0.33203,1.23828 0.22396,0.29948 0.52995,0.44922 0.91797,0.44922 0.38281,0 0.6862,-0.15104 0.91016,-0.45312 0.22395,-0.30209 0.33593,-0.71354 0.33593,-1.23438 0,-0.51822 -0.11198,-0.92838 -0.33593,-1.23047 -0.22396,-0.30468 -0.52735,-0.45702 -0.91016,-0.45703 m 0,-0.60937 c 0.625,0 1.11588,0.20313 1.47266,0.60937 0.35676,0.40626 0.53515,0.96875 0.53515,1.6875 0,0.71615 -0.17839,1.27865 -0.53515,1.6875 -0.35678,0.40625 -0.84766,0.60938 -1.47266,0.60938 -0.6276,0 -1.11979,-0.20313 -1.47656,-0.60938 -0.35417,-0.40885 -0.53125,-0.97135 -0.53125,-1.6875 0,-0.71875 0.17708,-1.28124 0.53125,-1.6875 0.35677,-0.40624 0.84896,-0.60937 1.47656,-0.60937"
           id="path4297"
           style="font-size:8px;font-variant:normal;font-stretch:normal;text-align:center;text-anchor:middle;font-family:Sans;-inkscape-font-specification:Sans" />
        <path
           d="m 599.97656,419.36441 0,2.64063 -0.71875,0 0,-2.61719 c 0,-0.41406 -0.0807,-0.72396 -0.24219,-0.92969 -0.16146,-0.20573 -0.40364,-0.30859 -0.72656,-0.30859 -0.38802,0 -0.69401,0.1237 -0.91797,0.37109 -0.22396,0.2474 -0.33594,0.58464 -0.33593,1.01172 l 0,2.47266 -0.72266,0 0,-4.375 0.72266,0 0,0.67968 c 0.17187,-0.26301 0.37369,-0.45963 0.60546,-0.58984 0.23438,-0.1302 0.50391,-0.19531 0.8086,-0.19531 0.5026,0 0.88281,0.15625 1.14062,0.46875 0.25781,0.3099 0.38672,0.76693 0.38672,1.37109"
           id="path4299"
           style="font-size:8px;font-variant:normal;font-stretch:normal;text-align:center;text-anchor:middle;font-family:Sans;-inkscape-font-specification:Sans" />
        <path
           d="m 603.11328,418.13394 c -0.38542,1e-5 -0.6901,0.15105 -0.91406,0.45313 -0.22396,0.29948 -0.33594,0.71094 -0.33594,1.23437 0,0.52344 0.11068,0.9362 0.33203,1.23828 0.22396,0.29948 0.52995,0.44922 0.91797,0.44922 0.38281,0 0.6862,-0.15104 0.91016,-0.45312 0.22395,-0.30209 0.33593,-0.71354 0.33593,-1.23438 0,-0.51822 -0.11198,-0.92838 -0.33593,-1.23047 -0.22396,-0.30468 -0.52735,-0.45702 -0.91016,-0.45703 m 0,-0.60937 c 0.625,0 1.11588,0.20313 1.47266,0.60937 0.35676,0.40626 0.53515,0.96875 0.53515,1.6875 0,0.71615 -0.17839,1.27865 -0.53515,1.6875 -0.35678,0.40625 -0.84766,0.60938 -1.47266,0.60938 -0.6276,0 -1.11979,-0.20313 -1.47656,-0.60938 -0.35417,-0.40885 -0.53125,-0.97135 -0.53125,-1.6875 0,-0.71875 0.17708,-1.28124 0.53125,-1.6875 0.35677,-0.40624 0.84896,-0.60937 1.47656,-0.60937"
           id="path4301"
           style="font-size:8px;font-variant:normal;font-stretch:normal;text-align:center;text-anchor:middle;font-family:Sans;-inkscape-font-specification:Sans" />
        <path
           d="m 606.30859,415.92691 0.71875,0 0,6.07813 -0.71875,0 0,-6.07813"
           id="path4303"
           style="font-size:8px;font-variant:normal;font-stretch:normal;text-align:center;text-anchor:middle;font-family:Sans;-inkscape-font-specification:Sans" />
        <path
           d="m 608.52734,417.63004 0.71875,0 0,4.375 -0.71875,0 0,-4.375 m 0,-1.70313 0.71875,0 0,0.91016 -0.71875,0 0,-0.91016"
           id="path4305"
           style="font-size:8px;font-variant:normal;font-stretch:normal;text-align:center;text-anchor:middle;font-family:Sans;-inkscape-font-specification:Sans" />
        <path
           d="m 611.45703,416.38785 0,1.24219 1.48047,0 0,0.55859 -1.48047,0 0,2.375 c 0,0.35677 0.0482,0.58594 0.14453,0.6875 0.099,0.10156 0.29818,0.15234 0.59766,0.15234 l 0.73828,0 0,0.60157 -0.73828,0 c -0.55469,0 -0.9375,-0.10287 -1.14844,-0.3086 -0.21094,-0.20833 -0.31641,-0.58593 -0.31641,-1.13281 l 0,-2.375 -0.52734,0 0,-0.55859 0.52734,0 0,-1.24219 0.72266,0"
           id="path4307"
           style="font-size:8px;font-variant:normal;font-stretch:normal;text-align:center;text-anchor:middle;font-family:Sans;-inkscape-font-specification:Sans" />
        <path
           d="m 617.52344,419.36441 0,2.64063 -0.71875,0 0,-2.61719 c -1e-5,-0.41406 -0.0807,-0.72396 -0.24219,-0.92969 -0.16146,-0.20573 -0.40365,-0.30859 -0.72656,-0.30859 -0.38803,0 -0.69401,0.1237 -0.91797,0.37109 -0.22396,0.2474 -0.33594,0.58464 -0.33594,1.01172 l 0,2.47266 -0.72266,0 0,-6.07813 0.72266,0 0,2.38281 c 0.17187,-0.26301 0.3737,-0.45963 0.60547,-0.58984 0.23437,-0.1302 0.5039,-0.19531 0.80859,-0.19531 0.5026,0 0.88281,0.15625 1.14063,0.46875 0.25781,0.3099 0.38671,0.76693 0.38672,1.37109"
           id="path4309"
           style="font-size:8px;font-variant:normal;font-stretch:normal;text-align:center;text-anchor:middle;font-family:Sans;-inkscape-font-specification:Sans" />
        <path
           d="m 618.96484,417.63004 0.71875,0 0,4.375 -0.71875,0 0,-4.375 m 0,-1.70313 0.71875,0 0,0.91016 -0.71875,0 0,-0.91016"
           id="path4311"
           style="font-size:8px;font-variant:normal;font-stretch:normal;text-align:center;text-anchor:middle;font-family:Sans;-inkscape-font-specification:Sans" />
        <path
           d="m 624.33203,417.798 0,0.67188 c -0.20313,-0.11198 -0.40755,-0.19531 -0.61328,-0.25 -0.20313,-0.0573 -0.40886,-0.0859 -0.61719,-0.0859 -0.46615,10e-6 -0.82812,0.14844 -1.08594,0.44531 -0.25781,0.29428 -0.38671,0.70834 -0.38671,1.24219 0,0.53386 0.1289,0.94922 0.38671,1.2461 0.25782,0.29427 0.61979,0.4414 1.08594,0.4414 0.20833,0 0.41406,-0.0273 0.61719,-0.082 0.20573,-0.0573 0.41015,-0.14193 0.61328,-0.25391 l 0,0.66407 c -0.20052,0.0937 -0.40886,0.16406 -0.625,0.21093 -0.21354,0.0469 -0.44141,0.0703 -0.68359,0.0703 -0.65886,0 -1.1823,-0.20703 -1.57032,-0.6211 -0.38802,-0.41406 -0.58203,-0.97265 -0.58203,-1.67578 0,-0.71354 0.19532,-1.27473 0.58594,-1.68359 0.39323,-0.40885 0.93099,-0.61328 1.61328,-0.61328 0.22135,0 0.4375,0.0234 0.64844,0.0703 0.21093,0.0443 0.41536,0.11198 0.61328,0.20312"
           id="path4313"
           style="font-size:8px;font-variant:normal;font-stretch:normal;text-align:center;text-anchor:middle;font-family:Sans;-inkscape-font-specification:Sans" />
        <path
           d="m 627.88672,416.173 0.84765,0 1.44922,2.16797 1.45703,-2.16797 0.84766,0 -1.875,2.80079 2,3.03125 -0.84766,0 -1.64062,-2.48047 -1.65234,2.48047 -0.85157,0 2.08203,-3.11329 -1.8164,-2.71875"
           id="path4315"
           style="font-size:8px;font-variant:normal;font-stretch:normal;text-align:center;text-anchor:middle;font-family:Sans;-inkscape-font-specification:Sans" />
        <path
           d="m 633.65234,416.173 0.78907,0 0,5.83204 -0.78907,0 0,-5.83204"
           id="path4317"
           style="font-size:8px;font-variant:normal;font-stretch:normal;text-align:center;text-anchor:middle;font-family:Sans;-inkscape-font-specification:Sans" />
        <path
           d="m 639.50781,416.36441 0,0.76953 c -0.29948,-0.14322 -0.58203,-0.24999 -0.84765,-0.32031 -0.26563,-0.0703 -0.52214,-0.10546 -0.76954,-0.10547 -0.42968,10e-6 -0.76172,0.0833 -0.99609,0.25 -0.23177,0.16667 -0.34766,0.40365 -0.34766,0.71094 0,0.25781 0.0768,0.45313 0.23047,0.58594 0.15625,0.13021 0.45052,0.23568 0.88282,0.3164 l 0.47656,0.0977 c 0.58854,0.11198 1.02213,0.3099 1.30078,0.59375 0.28125,0.28125 0.42187,0.65885 0.42187,1.13281 0,0.56511 -0.1901,0.99349 -0.57031,1.28516 -0.37761,0.29166 -0.93229,0.4375 -1.66406,0.4375 -0.27604,0 -0.57031,-0.0312 -0.88281,-0.0937 -0.3099,-0.0625 -0.63151,-0.15495 -0.96485,-0.27735 l 0,-0.8125 c 0.32032,0.17969 0.63412,0.31511 0.94141,0.40625 0.30729,0.0911 0.60937,0.13672 0.90625,0.13672 0.45052,0 0.79817,-0.0885 1.04297,-0.26562 0.24479,-0.17709 0.36718,-0.42969 0.36719,-0.75782 -10e-6,-0.28645 -0.0886,-0.51041 -0.26563,-0.67187 -0.17448,-0.16146 -0.46224,-0.28255 -0.86328,-0.36328 l -0.48047,-0.0937 c -0.58854,-0.11719 -1.01432,-0.30078 -1.27734,-0.55078 -0.26302,-0.25 -0.39453,-0.59766 -0.39453,-1.04297 0,-0.51562 0.18099,-0.92187 0.54296,-1.21875 0.36459,-0.29687 0.86589,-0.44531 1.50391,-0.44531 0.27344,0 0.55208,0.0247 0.83594,0.0742 0.28385,0.0495 0.57421,0.12371 0.87109,0.22266"
           id="path4319"
           style="font-size:8px;font-variant:normal;font-stretch:normal;text-align:center;text-anchor:middle;font-family:Sans;-inkscape-font-specification:Sans" />
        <path
           d="m 641.08984,416.173 3.35157,0 0,0.66407 -2.5625,0 0,1.71875 2.3125,0 0,0.66406 -2.3125,0 0,2.78516 -0.78907,0 0,-5.83204"
           id="path4321"
           style="font-size:8px;font-variant:normal;font-stretch:normal;text-align:center;text-anchor:middle;font-family:Sans;-inkscape-font-specification:Sans" />
        <path
           d="m 648.24609,416.173 3.35157,0 0,0.66407 -2.5625,0 0,1.71875 2.3125,0 0,0.66406 -2.3125,0 0,2.78516 -0.78907,0 0,-5.83204"
           id="path4323"
           style="font-size:8px;font-variant:normal;font-stretch:normal;text-align:center;text-anchor:middle;font-family:Sans;-inkscape-font-specification:Sans" />
        <path
           d="m 652.24609,417.63004 0.71875,0 0,4.375 -0.71875,0 0,-4.375 m 0,-1.70313 0.71875,0 0,0.91016 -0.71875,0 0,-0.91016"
           id="path4325"
           style="font-size:8px;font-variant:normal;font-stretch:normal;text-align:center;text-anchor:middle;font-family:Sans;-inkscape-font-specification:Sans" />
        <path
           d="m 654.46484,415.92691 0.71875,0 0,6.07813 -0.71875,0 0,-6.07813"
           id="path4327"
           style="font-size:8px;font-variant:normal;font-stretch:normal;text-align:center;text-anchor:middle;font-family:Sans;-inkscape-font-specification:Sans" />
        <path
           d="m 660.42578,419.63785 0,0.35156 -3.30469,0 c 0.0312,0.49479 0.17969,0.8724 0.44532,1.13281 0.26822,0.25782 0.64062,0.38672 1.11718,0.38672 0.27604,0 0.54297,-0.0338 0.80078,-0.10156 0.26042,-0.0677 0.51823,-0.16927 0.77344,-0.30469 l 0,0.67969 c -0.25781,0.10937 -0.52214,0.19271 -0.79297,0.25 -0.27083,0.0573 -0.54557,0.0859 -0.82422,0.0859 -0.69791,0 -1.2513,-0.20313 -1.66015,-0.60938 -0.40625,-0.40625 -0.60938,-0.95573 -0.60938,-1.64844 0,-0.71614 0.19271,-1.28385 0.57813,-1.70312 0.38802,-0.42187 0.91015,-0.63281 1.5664,-0.63281 0.58854,0 1.05339,0.19011 1.39454,0.57031 0.34374,0.37761 0.51562,0.89193 0.51562,1.54297 m -0.71875,-0.21094 c -0.005,-0.39323 -0.11589,-0.70703 -0.33203,-0.94141 -0.21354,-0.23437 -0.4974,-0.35155 -0.85156,-0.35156 -0.40105,1e-5 -0.72266,0.11329 -0.96485,0.33985 -0.23958,0.22656 -0.3776,0.54557 -0.41406,0.95703 l 2.5625,-0.004"
           id="path4329"
           style="font-size:8px;font-variant:normal;font-stretch:normal;text-align:center;text-anchor:middle;font-family:Sans;-inkscape-font-specification:Sans" />
      </g>
      <path
         d="m 567.5,407.00504 109.99999,0 0,190 -109.99999,0 z"
         id="rect2991-69-0-7-7"
         style="fill:none;stroke:#000000;stroke-width:0.99999988;stroke-opacity:1" />
      <g
         id="text2985-2-5-5-4-2-1-8-8"
         style="font-size:40px;font-style:normal;font-weight:normal;line-height:125%;letter-spacing:0px;word-spacing:0px;fill:#000000;fill-opacity:1;stroke:none;font-family:Sans">
        <path
           d="m 590.05078,539.1554 0.84766,0 1.44922,2.16796 1.45703,-2.16796 0.84765,0 -1.875,2.80078 2,3.03125 -0.84765,0 -1.64063,-2.48047 -1.65234,2.48047 -0.85156,0 2.08203,-3.11328 -1.81641,-2.71875"
           id="path4333"
           style="font-size:8px;font-variant:normal;font-stretch:normal;text-align:center;text-anchor:middle;font-family:Sans;-inkscape-font-specification:Sans" />
        <path
           d="m 595.81641,539.1554 0.78906,0 0,5.83203 -0.78906,0 0,-5.83203"
           id="path4335"
           style="font-size:8px;font-variant:normal;font-stretch:normal;text-align:center;text-anchor:middle;font-family:Sans;-inkscape-font-specification:Sans" />
        <path
           d="m 601.67187,539.3468 0,0.76953 c -0.29948,-0.14322 -0.58203,-0.24999 -0.84765,-0.32031 -0.26563,-0.0703 -0.52214,-0.10546 -0.76953,-0.10547 -0.42969,10e-6 -0.76172,0.0833 -0.9961,0.25 -0.23177,0.16667 -0.34765,0.40365 -0.34765,0.71094 0,0.25782 0.0768,0.45313 0.23047,0.58594 0.15624,0.13021 0.45052,0.23568 0.88281,0.3164 l 0.47656,0.0977 c 0.58854,0.11198 1.02213,0.3099 1.30078,0.59375 0.28125,0.28125 0.42187,0.65886 0.42188,1.13281 -1e-5,0.56511 -0.19011,0.99349 -0.57032,1.28516 -0.3776,0.29166 -0.93229,0.4375 -1.66406,0.4375 -0.27604,0 -0.57031,-0.0312 -0.88281,-0.0937 -0.3099,-0.0625 -0.63151,-0.15495 -0.96484,-0.27735 l 0,-0.8125 c 0.32031,0.17969 0.63411,0.31511 0.9414,0.40625 0.30729,0.0911 0.60938,0.13672 0.90625,0.13672 0.45052,0 0.79818,-0.0885 1.04297,-0.26562 0.24479,-0.17708 0.36718,-0.42969 0.36719,-0.75781 -10e-6,-0.28646 -0.0885,-0.51042 -0.26563,-0.67188 -0.17448,-0.16146 -0.46224,-0.28255 -0.86328,-0.36328 l -0.48047,-0.0937 c -0.58854,-0.11719 -1.01432,-0.30078 -1.27734,-0.55078 -0.26302,-0.25 -0.39453,-0.59765 -0.39453,-1.04297 0,-0.51562 0.18099,-0.92187 0.54297,-1.21875 0.36458,-0.29687 0.86588,-0.44531 1.5039,-0.44531 0.27344,0 0.55208,0.0247 0.83594,0.0742 0.28385,0.0495 0.57422,0.1237 0.87109,0.22265"
           id="path4337"
           style="font-size:8px;font-variant:normal;font-stretch:normal;text-align:center;text-anchor:middle;font-family:Sans;-inkscape-font-specification:Sans" />
        <path
           d="m 603.25391,539.1554 3.35156,0 0,0.66406 -2.5625,0 0,1.71875 2.3125,0 0,0.66406 -2.3125,0 0,2.78516 -0.78906,0 0,-5.83203"
           id="path4339"
           style="font-size:8px;font-variant:normal;font-stretch:normal;text-align:center;text-anchor:middle;font-family:Sans;-inkscape-font-specification:Sans" />
        <path
           d="m 613.25781,541.27649 0,-2.36719 0.71875,0 0,6.07813 -0.71875,0 0,-0.65625 c -0.15104,0.26041 -0.34245,0.45442 -0.57422,0.58203 -0.22917,0.125 -0.50521,0.1875 -0.82812,0.1875 -0.52865,0 -0.95964,-0.21094 -1.29297,-0.63281 -0.33073,-0.42188 -0.49609,-0.97657 -0.49609,-1.66407 0,-0.68749 0.16536,-1.24218 0.49609,-1.66406 0.33333,-0.42187 0.76432,-0.63281 1.29297,-0.63281 0.32291,0 0.59895,0.0638 0.82812,0.1914 0.23177,0.12501 0.42318,0.31772 0.57422,0.57813 m -2.44922,1.52734 c 0,0.52865 0.10808,0.94401 0.32422,1.2461 0.21875,0.29948 0.51823,0.44922 0.89844,0.44922 0.38021,0 0.67968,-0.14974 0.89844,-0.44922 0.21874,-0.30209 0.32812,-0.71745 0.32812,-1.2461 0,-0.52864 -0.10938,-0.9427 -0.32812,-1.24218 -0.21876,-0.30208 -0.51823,-0.45313 -0.89844,-0.45313 -0.38021,0 -0.67969,0.15105 -0.89844,0.45313 -0.21614,0.29948 -0.32422,0.71354 -0.32422,1.24218"
           id="path4341"
           style="font-size:8px;font-variant:normal;font-stretch:normal;text-align:center;text-anchor:middle;font-family:Sans;-inkscape-font-specification:Sans" />
        <path
           d="m 617.44531,542.78821 c -0.58073,0 -0.98307,0.0664 -1.20703,0.19922 -0.22396,0.13281 -0.33594,0.35937 -0.33594,0.67968 0,0.25521 0.0833,0.45834 0.25,0.60938 0.16927,0.14844 0.39844,0.22266 0.6875,0.22266 0.39844,0 0.71745,-0.14063 0.95703,-0.42188 0.24219,-0.28385 0.36328,-0.66015 0.36329,-1.12891 l 0,-0.16015 -0.71485,0 m 1.4336,-0.29688 0,2.4961 -0.71875,0 0,-0.66407 c -0.16407,0.26563 -0.3685,0.46224 -0.61329,0.58985 -0.24479,0.125 -0.54427,0.1875 -0.89843,0.1875 -0.44792,0 -0.80469,-0.125 -1.07032,-0.375 -0.26302,-0.25261 -0.39453,-0.58984 -0.39453,-1.01172 0,-0.49219 0.16407,-0.86328 0.49219,-1.11328 0.33073,-0.25 0.82292,-0.375 1.47656,-0.375 l 1.00782,0 0,-0.0703 c -10e-6,-0.33073 -0.10938,-0.58594 -0.32813,-0.76563 -0.21615,-0.18229 -0.52083,-0.27343 -0.91406,-0.27344 -0.25,10e-6 -0.49349,0.03 -0.73047,0.0899 -0.23698,0.0599 -0.46484,0.14974 -0.68359,0.26953 l 0,-0.66406 c 0.26302,-0.10156 0.51822,-0.17708 0.76562,-0.22657 0.2474,-0.0521 0.48828,-0.0781 0.72266,-0.0781 0.63281,0 1.10546,0.16406 1.41797,0.49219 0.31249,0.32812 0.46874,0.82552 0.46875,1.49218"
           id="path4343"
           style="font-size:8px;font-variant:normal;font-stretch:normal;text-align:center;text-anchor:middle;font-family:Sans;-inkscape-font-specification:Sans" />
        <path
           d="m 621.07422,539.37024 0,1.24219 1.48047,0 0,0.55859 -1.48047,0 0,2.375 c 0,0.35677 0.0482,0.58594 0.14453,0.6875 0.099,0.10156 0.29818,0.15234 0.59766,0.15234 l 0.73828,0 0,0.60157 -0.73828,0 c -0.55469,0 -0.93751,-0.10287 -1.14844,-0.3086 -0.21094,-0.20833 -0.31641,-0.58593 -0.31641,-1.13281 l 0,-2.375 -0.52734,0 0,-0.55859 0.52734,0 0,-1.24219 0.72266,0"
           id="path4345"
           style="font-size:8px;font-variant:normal;font-stretch:normal;text-align:center;text-anchor:middle;font-family:Sans;-inkscape-font-specification:Sans" />
        <path
           d="m 625.49219,542.78821 c -0.58073,0 -0.98308,0.0664 -1.20703,0.19922 -0.22396,0.13281 -0.33594,0.35937 -0.33594,0.67968 0,0.25521 0.0833,0.45834 0.25,0.60938 0.16927,0.14844 0.39843,0.22266 0.6875,0.22266 0.39843,0 0.71744,-0.14063 0.95703,-0.42188 0.24218,-0.28385 0.36328,-0.66015 0.36328,-1.12891 l 0,-0.16015 -0.71484,0 m 1.43359,-0.29688 0,2.4961 -0.71875,0 0,-0.66407 c -0.16406,0.26563 -0.36849,0.46224 -0.61328,0.58985 -0.24479,0.125 -0.54427,0.1875 -0.89844,0.1875 -0.44792,0 -0.80469,-0.125 -1.07031,-0.375 -0.26302,-0.25261 -0.39453,-0.58984 -0.39453,-1.01172 0,-0.49219 0.16406,-0.86328 0.49219,-1.11328 0.33072,-0.25 0.82291,-0.375 1.47656,-0.375 l 1.00781,0 0,-0.0703 c 0,-0.33073 -0.10938,-0.58594 -0.32812,-0.76563 -0.21615,-0.18229 -0.52084,-0.27343 -0.91407,-0.27344 -0.25,10e-6 -0.49349,0.03 -0.73047,0.0899 -0.23698,0.0599 -0.46484,0.14974 -0.68359,0.26953 l 0,-0.66406 c 0.26302,-0.10156 0.51823,-0.17708 0.76563,-0.22657 0.24739,-0.0521 0.48828,-0.0781 0.72265,-0.0781 0.63281,0 1.10547,0.16406 1.41797,0.49219 0.3125,0.32812 0.46875,0.82552 0.46875,1.49218"
           id="path4347"
           style="font-size:8px;font-variant:normal;font-stretch:normal;text-align:center;text-anchor:middle;font-family:Sans;-inkscape-font-specification:Sans" />
        <path
           d="m 634.09766,542.80383 c -10e-6,-0.52864 -0.10938,-0.9427 -0.32813,-1.24218 -0.21615,-0.30208 -0.51432,-0.45313 -0.89453,-0.45313 -0.38021,0 -0.67969,0.15105 -0.89844,0.45313 -0.21614,0.29948 -0.32422,0.71354 -0.32422,1.24218 0,0.52865 0.10808,0.94401 0.32422,1.2461 0.21875,0.29948 0.51823,0.44922 0.89844,0.44922 0.38021,0 0.67838,-0.14974 0.89453,-0.44922 0.21875,-0.30209 0.32812,-0.71745 0.32813,-1.2461 m -2.44532,-1.52734 c 0.15104,-0.26041 0.34115,-0.45312 0.57032,-0.57813 0.23176,-0.1276 0.50781,-0.1914 0.82812,-0.1914 0.53125,0 0.96224,0.21094 1.29297,0.63281 0.33333,0.42188 0.5,0.97657 0.5,1.66406 0,0.6875 -0.16667,1.24219 -0.5,1.66407 -0.33073,0.42187 -0.76172,0.63281 -1.29297,0.63281 -0.32031,0 -0.59636,-0.0625 -0.82812,-0.1875 -0.22917,-0.12761 -0.41928,-0.32162 -0.57032,-0.58203 l 0,0.65625 -0.72265,0 0,-6.07813 0.72265,0 0,2.36719"
           id="path4349"
           style="font-size:8px;font-variant:normal;font-stretch:normal;text-align:center;text-anchor:middle;font-family:Sans;-inkscape-font-specification:Sans" />
        <path
           d="m 636.03516,538.9093 0.71875,0 0,6.07813 -0.71875,0 0,-6.07813"
           id="path4351"
           style="font-size:8px;font-variant:normal;font-stretch:normal;text-align:center;text-anchor:middle;font-family:Sans;-inkscape-font-specification:Sans" />
        <path
           d="m 639.94922,541.11633 c -0.38542,1e-5 -0.69011,0.15105 -0.91406,0.45313 -0.22396,0.29948 -0.33594,0.71094 -0.33594,1.23437 0,0.52344 0.11067,0.9362 0.33203,1.23828 0.22396,0.29948 0.52995,0.44922 0.91797,0.44922 0.38281,0 0.68619,-0.15104 0.91015,-0.45312 0.22396,-0.30208 0.33594,-0.71354 0.33594,-1.23438 0,-0.51822 -0.11198,-0.92838 -0.33594,-1.23047 -0.22396,-0.30468 -0.52734,-0.45702 -0.91015,-0.45703 m 0,-0.60937 c 0.625,0 1.11588,0.20313 1.47265,0.60937 0.35677,0.40626 0.53516,0.96876 0.53516,1.6875 0,0.71615 -0.17839,1.27865 -0.53516,1.6875 -0.35677,0.40625 -0.84765,0.60938 -1.47265,0.60938 -0.62761,0 -1.11979,-0.20313 -1.47656,-0.60938 -0.35417,-0.40885 -0.53125,-0.97135 -0.53125,-1.6875 0,-0.71874 0.17708,-1.28124 0.53125,-1.6875 0.35677,-0.40624 0.84895,-0.60937 1.47656,-0.60937"
           id="path4353"
           style="font-size:8px;font-variant:normal;font-stretch:normal;text-align:center;text-anchor:middle;font-family:Sans;-inkscape-font-specification:Sans" />
        <path
           d="m 646.29297,540.7804 0,0.67187 c -0.20313,-0.11198 -0.40756,-0.19531 -0.61328,-0.25 -0.20313,-0.0573 -0.40886,-0.0859 -0.61719,-0.0859 -0.46615,1e-5 -0.82813,0.14844 -1.08594,0.44532 -0.25781,0.29427 -0.38672,0.70833 -0.38672,1.24218 0,0.53386 0.12891,0.94922 0.38672,1.2461 0.25781,0.29427 0.61979,0.4414 1.08594,0.4414 0.20833,0 0.41406,-0.0273 0.61719,-0.082 0.20572,-0.0573 0.41015,-0.14192 0.61328,-0.2539 l 0,0.66406 c -0.20053,0.0937 -0.40886,0.16406 -0.625,0.21094 -0.21355,0.0469 -0.44141,0.0703 -0.6836,0.0703 -0.65885,0 -1.18229,-0.20703 -1.57031,-0.6211 -0.38802,-0.41406 -0.58203,-0.97265 -0.58203,-1.67578 0,-0.71354 0.19531,-1.27473 0.58594,-1.68359 0.39323,-0.40885 0.93099,-0.61328 1.61328,-0.61328 0.22135,0 0.4375,0.0234 0.64844,0.0703 0.21093,0.0443 0.41536,0.11198 0.61328,0.20313"
           id="path4355"
           style="font-size:8px;font-variant:normal;font-stretch:normal;text-align:center;text-anchor:middle;font-family:Sans;-inkscape-font-specification:Sans" />
        <path
           d="m 647.52344,538.9093 0.72265,0 0,3.58985 2.14453,-1.88672 0.91797,0 -2.32031,2.04687 2.41797,2.32813 -0.9375,0 -2.22266,-2.13672 0,2.13672 -0.72265,0 0,-6.07813"
           id="path4357"
           style="font-size:8px;font-variant:normal;font-stretch:normal;text-align:center;text-anchor:middle;font-family:Sans;-inkscape-font-specification:Sans" />
        <path
           d="m 654.98047,540.74133 0,0.67969 c -0.20313,-0.10416 -0.41407,-0.18229 -0.63281,-0.23437 -0.21876,-0.0521 -0.44532,-0.0781 -0.67969,-0.0781 -0.35677,0 -0.625,0.0547 -0.80469,0.16406 -0.17708,0.10938 -0.26562,0.27344 -0.26562,0.49219 0,0.16667 0.0638,0.29818 0.1914,0.39453 0.12761,0.0937 0.38412,0.1836 0.76953,0.26953 l 0.2461,0.0547 c 0.51041,0.10938 0.87239,0.26433 1.08593,0.46484 0.21615,0.19792 0.32422,0.47527 0.32422,0.83204 0,0.40625 -0.16146,0.72786 -0.48437,0.96484 -0.32032,0.23698 -0.76172,0.35547 -1.32422,0.35547 -0.23438,0 -0.47917,-0.0234 -0.73438,-0.0703 -0.2526,-0.0443 -0.51953,-0.11198 -0.80078,-0.20313 l 0,-0.74219 c 0.26563,0.13802 0.52735,0.24219 0.78516,0.3125 0.25781,0.0677 0.51302,0.10157 0.76562,0.10157 0.33854,0 0.59896,-0.0573 0.78125,-0.17188 0.18229,-0.11719 0.27344,-0.28125 0.27344,-0.49219 0,-0.19531 -0.0664,-0.34505 -0.19922,-0.44922 -0.13021,-0.10416 -0.41797,-0.20442 -0.86328,-0.30078 l -0.25,-0.0586 c -0.44531,-0.0937 -0.76693,-0.23698 -0.96484,-0.42969 -0.19792,-0.19531 -0.29688,-0.46223 -0.29688,-0.80078 0,-0.41145 0.14584,-0.72916 0.4375,-0.95312 0.29167,-0.22396 0.70573,-0.33594 1.24219,-0.33594 0.26562,0 0.51562,0.0195 0.75,0.0586 0.23437,0.0391 0.45052,0.0977 0.64844,0.17578"
           id="path4359"
           style="font-size:8px;font-variant:normal;font-stretch:normal;text-align:center;text-anchor:middle;font-family:Sans;-inkscape-font-specification:Sans" />
      </g>
      <g
         id="text2985-3"
         style="font-size:40px;font-style:normal;font-weight:normal;line-height:125%;letter-spacing:0px;word-spacing:0px;fill:#000000;fill-opacity:1;stroke:none;font-family:Sans">
        <path
           d="m 593.74609,438.38004 0.84766,0 1.44922,2.16796 1.45703,-2.16796 0.84766,0 -1.875,2.80078 2,3.03125 -0.84766,0 -1.64063,-2.48047 -1.65234,2.48047 -0.85156,0 2.08203,-3.11328 -1.81641,-2.71875"
           id="path4362"
           style="font-size:8px;font-variant:normal;font-stretch:normal;font-family:Sans;-inkscape-font-specification:Sans" />
        <path
           d="m 599.51172,438.38004 0.78906,0 0,5.83203 -0.78906,0 0,-5.83203"
           id="path4364"
           style="font-size:8px;font-variant:normal;font-stretch:normal;font-family:Sans;-inkscape-font-specification:Sans" />
        <path
           d="m 605.36719,438.57144 0,0.76953 c -0.29949,-0.14322 -0.58204,-0.24999 -0.84766,-0.32031 -0.26563,-0.0703 -0.52214,-0.10546 -0.76953,-0.10547 -0.42969,1e-5 -0.76172,0.0833 -0.99609,0.25 -0.23178,0.16667 -0.34766,0.40365 -0.34766,0.71094 0,0.25782 0.0768,0.45313 0.23047,0.58594 0.15625,0.13021 0.45052,0.23568 0.88281,0.3164 l 0.47656,0.0977 c 0.58854,0.11198 1.02214,0.3099 1.30078,0.59375 0.28125,0.28125 0.42188,0.65886 0.42188,1.13281 0,0.56511 -0.19011,0.99349 -0.57031,1.28516 -0.37761,0.29166 -0.9323,0.4375 -1.66407,0.4375 -0.27604,0 -0.57031,-0.0312 -0.88281,-0.0937 -0.30989,-0.0625 -0.63151,-0.15495 -0.96484,-0.27735 l 0,-0.8125 c 0.32031,0.17969 0.63411,0.31511 0.9414,0.40625 0.30729,0.0911 0.60938,0.13672 0.90625,0.13672 0.45052,0 0.79818,-0.0885 1.04297,-0.26562 0.24479,-0.17708 0.36719,-0.42969 0.36719,-0.75781 0,-0.28646 -0.0885,-0.51042 -0.26562,-0.67188 -0.17449,-0.16146 -0.46225,-0.28255 -0.86329,-0.36328 l -0.48046,-0.0937 c -0.58855,-0.11719 -1.01433,-0.30078 -1.27735,-0.55078 -0.26302,-0.25 -0.39453,-0.59765 -0.39453,-1.04297 0,-0.51562 0.18099,-0.92187 0.54297,-1.21875 0.36458,-0.29687 0.86588,-0.44531 1.50391,-0.44531 0.27343,0 0.55208,0.0247 0.83593,0.0742 0.28385,0.0495 0.57422,0.1237 0.8711,0.22265"
           id="path4366"
           style="font-size:8px;font-variant:normal;font-stretch:normal;font-family:Sans;-inkscape-font-specification:Sans" />
        <path
           d="m 606.94922,438.38004 3.35156,0 0,0.66406 -2.5625,0 0,1.71875 2.3125,0 0,0.66406 -2.3125,0 0,2.78516 -0.78906,0 0,-5.83203"
           id="path4368"
           style="font-size:8px;font-variant:normal;font-stretch:normal;font-family:Sans;-inkscape-font-specification:Sans" />
        <path
           d="m 617.60156,438.57144 0,0.76953 c -0.29948,-0.14322 -0.58203,-0.24999 -0.84765,-0.32031 -0.26563,-0.0703 -0.52214,-0.10546 -0.76954,-0.10547 -0.42968,1e-5 -0.76172,0.0833 -0.99609,0.25 -0.23177,0.16667 -0.34766,0.40365 -0.34766,0.71094 0,0.25782 0.0768,0.45313 0.23047,0.58594 0.15625,0.13021 0.45052,0.23568 0.88282,0.3164 l 0.47656,0.0977 c 0.58854,0.11198 1.02213,0.3099 1.30078,0.59375 0.28125,0.28125 0.42187,0.65886 0.42187,1.13281 0,0.56511 -0.1901,0.99349 -0.57031,1.28516 -0.37761,0.29166 -0.93229,0.4375 -1.66406,0.4375 -0.27604,0 -0.57031,-0.0312 -0.88281,-0.0937 -0.3099,-0.0625 -0.63151,-0.15495 -0.96485,-0.27735 l 0,-0.8125 c 0.32032,0.17969 0.63412,0.31511 0.94141,0.40625 0.30729,0.0911 0.60937,0.13672 0.90625,0.13672 0.45052,0 0.79817,-0.0885 1.04297,-0.26562 0.24479,-0.17708 0.36718,-0.42969 0.36719,-0.75781 -10e-6,-0.28646 -0.0886,-0.51042 -0.26563,-0.67188 -0.17448,-0.16146 -0.46224,-0.28255 -0.86328,-0.36328 l -0.48047,-0.0937 c -0.58854,-0.11719 -1.01432,-0.30078 -1.27734,-0.55078 -0.26302,-0.25 -0.39453,-0.59765 -0.39453,-1.04297 0,-0.51562 0.18099,-0.92187 0.54296,-1.21875 0.36459,-0.29687 0.86589,-0.44531 1.50391,-0.44531 0.27344,0 0.55208,0.0247 0.83594,0.0742 0.28385,0.0495 0.57421,0.1237 0.87109,0.22265"
           id="path4370"
           style="font-size:8px;font-variant:normal;font-stretch:normal;font-family:Sans;-inkscape-font-specification:Sans" />
        <path
           d="m 619.15234,439.83707 0.71875,0 0,4.375 -0.71875,0 0,-4.375 m 0,-1.70313 0.71875,0 0,0.91016 -0.71875,0 0,-0.91016"
           id="path4372"
           style="font-size:8px;font-variant:normal;font-stretch:normal;font-family:Sans;-inkscape-font-specification:Sans" />
        <path
           d="m 624.25,441.97379 c 0,-0.52084 -0.10808,-0.92448 -0.32422,-1.21094 -0.21354,-0.28646 -0.51432,-0.42969 -0.90234,-0.42969 -0.38542,0 -0.6862,0.14323 -0.90235,0.42969 -0.21354,0.28646 -0.32031,0.6901 -0.32031,1.21094 0,0.51823 0.10677,0.92057 0.32031,1.20703 0.21615,0.28646 0.51693,0.42968 0.90235,0.42968 0.38802,0 0.6888,-0.14322 0.90234,-0.42968 0.21614,-0.28646 0.32422,-0.6888 0.32422,-1.20703 m 0.71875,1.69531 c 0,0.74479 -0.16537,1.29817 -0.49609,1.66015 -0.33074,0.36459 -0.83725,0.54688 -1.51954,0.54688 -0.2526,0 -0.49088,-0.0195 -0.71484,-0.0586 -0.22396,-0.0365 -0.44141,-0.0938 -0.65234,-0.17188 l 0,-0.69922 c 0.21093,0.11458 0.41927,0.19922 0.625,0.25391 0.20572,0.0547 0.41536,0.082 0.6289,0.082 0.47136,0 0.82422,-0.1237 1.0586,-0.37109 0.23437,-0.2448 0.35156,-0.61589 0.35156,-1.11329 l 0,-0.35546 c -0.14844,0.25781 -0.33854,0.45052 -0.57031,0.57812 -0.23178,0.1276 -0.50912,0.19141 -0.83203,0.19141 -0.53646,0 -0.96876,-0.20443 -1.29688,-0.61328 -0.32812,-0.40886 -0.49219,-0.95052 -0.49219,-1.625 0,-0.67709 0.16407,-1.22005 0.49219,-1.62891 0.32812,-0.40885 0.76042,-0.61328 1.29688,-0.61328 0.32291,0 0.60025,0.0638 0.83203,0.1914 0.23177,0.12761 0.42187,0.32032 0.57031,0.57813 l 0,-0.66406 0.71875,0 0,3.83203"
           id="path4374"
           style="font-size:8px;font-variant:normal;font-stretch:normal;font-family:Sans;-inkscape-font-specification:Sans" />
        <path
           d="m 630.08594,441.57144 0,2.64063 -0.71875,0 0,-2.61719 c -1e-5,-0.41406 -0.0807,-0.72396 -0.24219,-0.92969 -0.16146,-0.20572 -0.40365,-0.30859 -0.72656,-0.30859 -0.38803,0 -0.69401,0.1237 -0.91797,0.37109 -0.22396,0.2474 -0.33594,0.58464 -0.33594,1.01172 l 0,2.47266 -0.72266,0 0,-4.375 0.72266,0 0,0.67968 c 0.17187,-0.26301 0.3737,-0.45963 0.60547,-0.58984 0.23437,-0.1302 0.5039,-0.19531 0.80859,-0.19531 0.5026,0 0.88281,0.15625 1.14063,0.46875 0.25781,0.3099 0.38671,0.76693 0.38672,1.37109"
           id="path4376"
           style="font-size:8px;font-variant:normal;font-stretch:normal;font-family:Sans;-inkscape-font-specification:Sans" />
        <path
           d="m 633.51562,442.01285 c -0.58073,0 -0.98307,0.0664 -1.20703,0.19922 -0.22396,0.13281 -0.33593,0.35937 -0.33593,0.67968 0,0.25521 0.0833,0.45834 0.25,0.60938 0.16927,0.14844 0.39843,0.22266 0.6875,0.22266 0.39843,0 0.71744,-0.14063 0.95703,-0.42188 0.24218,-0.28385 0.36328,-0.66015 0.36328,-1.12891 l 0,-0.16015 -0.71485,0 m 1.4336,-0.29688 0,2.4961 -0.71875,0 0,-0.66407 c -0.16407,0.26563 -0.36849,0.46224 -0.61328,0.58985 -0.2448,0.125 -0.54428,0.1875 -0.89844,0.1875 -0.44792,0 -0.80469,-0.125 -1.07031,-0.375 -0.26302,-0.25261 -0.39453,-0.58984 -0.39453,-1.01172 0,-0.49219 0.16406,-0.86328 0.49218,-1.11328 0.33073,-0.25 0.82292,-0.375 1.47657,-0.375 l 1.00781,0 0,-0.0703 c 0,-0.33073 -0.10938,-0.58594 -0.32813,-0.76563 -0.21614,-0.18229 -0.52083,-0.27343 -0.91406,-0.27344 -0.25,10e-6 -0.49349,0.0299 -0.73047,0.0898 -0.23698,0.0599 -0.46484,0.14974 -0.68359,0.26953 l 0,-0.66406 c 0.26302,-0.10156 0.51823,-0.17708 0.76562,-0.22657 0.2474,-0.0521 0.48828,-0.0781 0.72266,-0.0781 0.63281,0 1.10547,0.16406 1.41797,0.49219 0.31249,0.32812 0.46874,0.82552 0.46875,1.49218"
           id="path4378"
           style="font-size:8px;font-variant:normal;font-stretch:normal;font-family:Sans;-inkscape-font-specification:Sans" />
        <path
           d="m 637.14453,438.59488 0,1.24219 1.48047,0 0,0.55859 -1.48047,0 0,2.375 c 0,0.35677 0.0482,0.58594 0.14453,0.6875 0.099,0.10156 0.29818,0.15234 0.59766,0.15234 l 0.73828,0 0,0.60157 -0.73828,0 c -0.55469,0 -0.9375,-0.10287 -1.14844,-0.3086 -0.21094,-0.20833 -0.31641,-0.58593 -0.31641,-1.13281 l 0,-2.375 -0.52734,0 0,-0.55859 0.52734,0 0,-1.24219 0.72266,0"
           id="path4380"
           style="font-size:8px;font-variant:normal;font-stretch:normal;font-family:Sans;-inkscape-font-specification:Sans" />
        <path
           d="m 639.5,442.4855 0,-2.64843 0.71875,0 0,2.62109 c 0,0.41406 0.0807,0.72526 0.24219,0.93359 0.16145,0.20573 0.40364,0.3086 0.72656,0.3086 0.38802,0 0.69401,-0.1237 0.91797,-0.3711 0.22656,-0.24739 0.33984,-0.58463 0.33984,-1.01171 l 0,-2.48047 0.71875,0 0,4.375 -0.71875,0 0,-0.67188 c -0.17448,0.26563 -0.3776,0.46354 -0.60937,0.59375 -0.22917,0.12761 -0.4961,0.19141 -0.80078,0.19141 -0.50261,0 -0.88412,-0.15625 -1.14454,-0.46875 -0.26041,-0.3125 -0.39062,-0.76953 -0.39062,-1.3711 m 1.80859,-2.7539 0,0"
           id="path4382"
           style="font-size:8px;font-variant:normal;font-stretch:normal;font-family:Sans;-inkscape-font-specification:Sans" />
        <path
           d="m 647.1875,440.50894 c -0.0807,-0.0469 -0.16927,-0.0807 -0.26563,-0.10156 -0.0937,-0.0234 -0.19791,-0.0351 -0.3125,-0.0352 -0.40625,10e-6 -0.71875,0.13282 -0.9375,0.39844 -0.21614,0.26302 -0.32422,0.64193 -0.32421,1.13672 l 0,2.30469 -0.72266,0 0,-4.375 0.72266,0 0,0.67968 c 0.15104,-0.26562 0.34765,-0.46223 0.58984,-0.58984 0.24219,-0.1302 0.53646,-0.19531 0.88281,-0.19531 0.0495,0 0.10417,0.004 0.16406,0.0117 0.0599,0.005 0.1263,0.0143 0.19922,0.0273 l 0.004,0.73828"
           id="path4384"
           style="font-size:8px;font-variant:normal;font-stretch:normal;font-family:Sans;-inkscape-font-specification:Sans" />
        <path
           d="m 651.51953,441.84488 0,0.35156 -3.30469,0 c 0.0312,0.49479 0.17969,0.8724 0.44532,1.13281 0.26822,0.25782 0.64062,0.38672 1.11718,0.38672 0.27604,0 0.54297,-0.0339 0.80078,-0.10156 0.26042,-0.0677 0.51823,-0.16927 0.77344,-0.30469 l 0,0.67969 c -0.25781,0.10938 -0.52214,0.19271 -0.79297,0.25 -0.27083,0.0573 -0.54557,0.0859 -0.82422,0.0859 -0.69791,0 -1.2513,-0.20313 -1.66015,-0.60938 -0.40625,-0.40625 -0.60938,-0.95572 -0.60938,-1.64843 0,-0.71615 0.19271,-1.28386 0.57813,-1.70313 0.38802,-0.42187 0.91015,-0.63281 1.5664,-0.63281 0.58854,0 1.05339,0.19011 1.39454,0.57031 0.34374,0.37761 0.51562,0.89193 0.51562,1.54297 m -0.71875,-0.21094 c -0.005,-0.39322 -0.11589,-0.70703 -0.33203,-0.9414 -0.21354,-0.23438 -0.4974,-0.35156 -0.85156,-0.35157 -0.40105,10e-6 -0.72266,0.11329 -0.96485,0.33985 -0.23958,0.22656 -0.3776,0.54557 -0.41406,0.95703 l 2.5625,-0.004"
           id="path4386"
           style="font-size:8px;font-variant:normal;font-stretch:normal;font-family:Sans;-inkscape-font-specification:Sans" />
      </g>
      <path
         d="m 482.50003,362.00504 314.99997,0 0,255.00001 -314.99997,0 z"
         id="rect2991-69-0-7-7-8"
         style="fill:none;stroke:#000000;stroke-width:0.99999988;stroke-opacity:1" />
      <g
         id="text2985-2-5-5-4-2-1-8-5-3"
         style="font-size:40px;font-style:normal;font-weight:normal;line-height:125%;letter-spacing:0px;word-spacing:0px;fill:#000000;fill-opacity:1;stroke:none;font-family:Sans">
        <path
           d="m 498.28519,376.173 1.17578,0 1.48828,3.96875 1.49609,-3.96875 1.17578,0 0,5.83204 -0.76953,0 0,-5.1211 -1.5039,4 -0.79297,0 -1.50391,-4 0,5.1211 -0.76562,0 0,-5.83204"
           id="path4390"
           style="font-size:8px;font-variant:normal;font-stretch:normal;text-align:start;text-anchor:start;font-family:Sans;-inkscape-font-specification:Sans" />
        <path
           d="m 506.8555,378.13394 c -0.38542,1e-5 -0.69011,0.15105 -0.91406,0.45313 -0.22396,0.29948 -0.33594,0.71094 -0.33594,1.23437 0,0.52344 0.11068,0.9362 0.33203,1.23828 0.22396,0.29948 0.52995,0.44922 0.91797,0.44922 0.38281,0 0.68619,-0.15104 0.91016,-0.45312 0.22395,-0.30209 0.33593,-0.71354 0.33593,-1.23438 0,-0.51822 -0.11198,-0.92838 -0.33593,-1.23047 -0.22397,-0.30468 -0.52735,-0.45702 -0.91016,-0.45703 m 0,-0.60937 c 0.625,0 1.11588,0.20313 1.47266,0.60937 0.35676,0.40626 0.53515,0.96875 0.53515,1.6875 0,0.71615 -0.17839,1.27865 -0.53515,1.6875 -0.35678,0.40625 -0.84766,0.60938 -1.47266,0.60938 -0.62761,0 -1.11979,-0.20313 -1.47656,-0.60938 -0.35417,-0.40885 -0.53125,-0.97135 -0.53125,-1.6875 0,-0.71875 0.17708,-1.28124 0.53125,-1.6875 0.35677,-0.40624 0.84895,-0.60937 1.47656,-0.60937"
           id="path4392"
           style="font-size:8px;font-variant:normal;font-stretch:normal;text-align:start;text-anchor:start;font-family:Sans;-inkscape-font-specification:Sans" />
        <path
           d="m 513.68753,379.36441 0,2.64063 -0.71875,0 0,-2.61719 c 0,-0.41406 -0.0807,-0.72396 -0.24219,-0.92969 -0.16146,-0.20573 -0.40365,-0.30859 -0.72656,-0.30859 -0.38802,0 -0.69401,0.1237 -0.91797,0.37109 -0.22396,0.2474 -0.33594,0.58464 -0.33594,1.01172 l 0,2.47266 -0.72265,0 0,-4.375 0.72265,0 0,0.67968 c 0.17188,-0.26301 0.3737,-0.45963 0.60547,-0.58984 0.23438,-0.1302 0.50391,-0.19531 0.8086,-0.19531 0.5026,0 0.88281,0.15625 1.14062,0.46875 0.25781,0.3099 0.38672,0.76693 0.38672,1.37109"
           id="path4394"
           style="font-size:8px;font-variant:normal;font-stretch:normal;text-align:start;text-anchor:start;font-family:Sans;-inkscape-font-specification:Sans" />
        <path
           d="m 516.82425,378.13394 c -0.38542,1e-5 -0.69011,0.15105 -0.91406,0.45313 -0.22396,0.29948 -0.33594,0.71094 -0.33594,1.23437 0,0.52344 0.11068,0.9362 0.33203,1.23828 0.22396,0.29948 0.52995,0.44922 0.91797,0.44922 0.38281,0 0.68619,-0.15104 0.91016,-0.45312 0.22395,-0.30209 0.33593,-0.71354 0.33593,-1.23438 0,-0.51822 -0.11198,-0.92838 -0.33593,-1.23047 -0.22397,-0.30468 -0.52735,-0.45702 -0.91016,-0.45703 m 0,-0.60937 c 0.625,0 1.11588,0.20313 1.47266,0.60937 0.35676,0.40626 0.53515,0.96875 0.53515,1.6875 0,0.71615 -0.17839,1.27865 -0.53515,1.6875 -0.35678,0.40625 -0.84766,0.60938 -1.47266,0.60938 -0.62761,0 -1.11979,-0.20313 -1.47656,-0.60938 -0.35417,-0.40885 -0.53125,-0.97135 -0.53125,-1.6875 0,-0.71875 0.17708,-1.28124 0.53125,-1.6875 0.35677,-0.40624 0.84895,-0.60937 1.47656,-0.60937"
           id="path4396"
           style="font-size:8px;font-variant:normal;font-stretch:normal;text-align:start;text-anchor:start;font-family:Sans;-inkscape-font-specification:Sans" />
        <path
           d="m 520.01956,375.92691 0.71875,0 0,6.07813 -0.71875,0 0,-6.07813"
           id="path4398"
           style="font-size:8px;font-variant:normal;font-stretch:normal;text-align:start;text-anchor:start;font-family:Sans;-inkscape-font-specification:Sans" />
        <path
           d="m 522.23831,377.63004 0.71875,0 0,4.375 -0.71875,0 0,-4.375 m 0,-1.70313 0.71875,0 0,0.91016 -0.71875,0 0,-0.91016"
           id="path4400"
           style="font-size:8px;font-variant:normal;font-stretch:normal;text-align:start;text-anchor:start;font-family:Sans;-inkscape-font-specification:Sans" />
        <path
           d="m 525.168,376.38785 0,1.24219 1.48047,0 0,0.55859 -1.48047,0 0,2.375 c 0,0.35677 0.0482,0.58594 0.14453,0.6875 0.099,0.10156 0.29818,0.15234 0.59766,0.15234 l 0.73828,0 0,0.60157 -0.73828,0 c -0.55469,0 -0.9375,-0.10287 -1.14844,-0.3086 -0.21094,-0.20833 -0.31641,-0.58593 -0.31641,-1.13281 l 0,-2.375 -0.52734,0 0,-0.55859 0.52734,0 0,-1.24219 0.72266,0"
           id="path4402"
           style="font-size:8px;font-variant:normal;font-stretch:normal;text-align:start;text-anchor:start;font-family:Sans;-inkscape-font-specification:Sans" />
        <path
           d="m 531.23441,379.36441 0,2.64063 -0.71875,0 0,-2.61719 c -10e-6,-0.41406 -0.0807,-0.72396 -0.24219,-0.92969 -0.16146,-0.20573 -0.40365,-0.30859 -0.72656,-0.30859 -0.38803,0 -0.69402,0.1237 -0.91797,0.37109 -0.22396,0.2474 -0.33594,0.58464 -0.33594,1.01172 l 0,2.47266 -0.72266,0 0,-6.07813 0.72266,0 0,2.38281 c 0.17187,-0.26301 0.3737,-0.45963 0.60547,-0.58984 0.23437,-0.1302 0.5039,-0.19531 0.80859,-0.19531 0.5026,0 0.88281,0.15625 1.14063,0.46875 0.25781,0.3099 0.38671,0.76693 0.38672,1.37109"
           id="path4404"
           style="font-size:8px;font-variant:normal;font-stretch:normal;text-align:start;text-anchor:start;font-family:Sans;-inkscape-font-specification:Sans" />
        <path
           d="m 532.67581,377.63004 0.71875,0 0,4.375 -0.71875,0 0,-4.375 m 0,-1.70313 0.71875,0 0,0.91016 -0.71875,0 0,-0.91016"
           id="path4406"
           style="font-size:8px;font-variant:normal;font-stretch:normal;text-align:start;text-anchor:start;font-family:Sans;-inkscape-font-specification:Sans" />
        <path
           d="m 538.043,377.798 0,0.67188 c -0.20313,-0.11198 -0.40756,-0.19531 -0.61328,-0.25 -0.20313,-0.0573 -0.40886,-0.0859 -0.61719,-0.0859 -0.46615,10e-6 -0.82813,0.14844 -1.08594,0.44531 -0.25781,0.29428 -0.38672,0.70834 -0.38672,1.24219 0,0.53386 0.12891,0.94922 0.38672,1.2461 0.25781,0.29427 0.61979,0.4414 1.08594,0.4414 0.20833,0 0.41406,-0.0273 0.61719,-0.082 0.20572,-0.0573 0.41015,-0.14193 0.61328,-0.25391 l 0,0.66407 c -0.20053,0.0937 -0.40886,0.16406 -0.625,0.21093 -0.21355,0.0469 -0.44141,0.0703 -0.68359,0.0703 -0.65886,0 -1.1823,-0.20703 -1.57032,-0.6211 -0.38802,-0.41406 -0.58203,-0.97265 -0.58203,-1.67578 0,-0.71354 0.19531,-1.27473 0.58594,-1.68359 0.39323,-0.40885 0.93099,-0.61328 1.61328,-0.61328 0.22135,0 0.4375,0.0234 0.64844,0.0703 0.21093,0.0443 0.41536,0.11198 0.61328,0.20312"
           id="path4408"
           style="font-size:8px;font-variant:normal;font-stretch:normal;text-align:start;text-anchor:start;font-family:Sans;-inkscape-font-specification:Sans" />
        <path
           d="m 541.59769,376.173 0.84765,0 1.44922,2.16797 1.45703,-2.16797 0.84766,0 -1.875,2.80079 2,3.03125 -0.84766,0 -1.64062,-2.48047 -1.65235,2.48047 -0.85156,0 2.08203,-3.11329 -1.8164,-2.71875"
           id="path4410"
           style="font-size:8px;font-variant:normal;font-stretch:normal;text-align:start;text-anchor:start;font-family:Sans;-inkscape-font-specification:Sans" />
        <path
           d="m 547.36331,376.173 0.78906,0 0,5.83204 -0.78906,0 0,-5.83204"
           id="path4412"
           style="font-size:8px;font-variant:normal;font-stretch:normal;text-align:start;text-anchor:start;font-family:Sans;-inkscape-font-specification:Sans" />
        <path
           d="m 553.21878,376.36441 0,0.76953 c -0.29948,-0.14322 -0.58203,-0.24999 -0.84766,-0.32031 -0.26562,-0.0703 -0.52213,-0.10546 -0.76953,-0.10547 -0.42969,10e-6 -0.76172,0.0833 -0.99609,0.25 -0.23177,0.16667 -0.34766,0.40365 -0.34766,0.71094 0,0.25781 0.0768,0.45313 0.23047,0.58594 0.15625,0.13021 0.45052,0.23568 0.88281,0.3164 l 0.47657,0.0977 c 0.58853,0.11198 1.02213,0.3099 1.30078,0.59375 0.28124,0.28125 0.42187,0.65885 0.42187,1.13281 0,0.56511 -0.19011,0.99349 -0.57031,1.28516 -0.37761,0.29166 -0.93229,0.4375 -1.66406,0.4375 -0.27605,0 -0.57032,-0.0312 -0.88281,-0.0937 -0.3099,-0.0625 -0.63152,-0.15495 -0.96485,-0.27735 l 0,-0.8125 c 0.32031,0.17969 0.63412,0.31511 0.94141,0.40625 0.30729,0.0911 0.60937,0.13672 0.90625,0.13672 0.45052,0 0.79817,-0.0885 1.04297,-0.26562 0.24478,-0.17709 0.36718,-0.42969 0.36718,-0.75782 0,-0.28645 -0.0885,-0.51041 -0.26562,-0.67187 -0.17448,-0.16146 -0.46224,-0.28255 -0.86328,-0.36328 l -0.48047,-0.0937 c -0.58854,-0.11719 -1.01432,-0.30078 -1.27734,-0.55078 -0.26303,-0.25 -0.39454,-0.59766 -0.39454,-1.04297 0,-0.51562 0.18099,-0.92187 0.54297,-1.21875 0.36458,-0.29687 0.86589,-0.44531 1.50391,-0.44531 0.27343,0 0.55208,0.0247 0.83594,0.0742 0.28385,0.0495 0.57421,0.12371 0.87109,0.22266"
           id="path4414"
           style="font-size:8px;font-variant:normal;font-stretch:normal;text-align:start;text-anchor:start;font-family:Sans;-inkscape-font-specification:Sans" />
        <path
           d="m 554.80081,376.173 3.35156,0 0,0.66407 -2.5625,0 0,1.71875 2.3125,0 0,0.66406 -2.3125,0 0,2.78516 -0.78906,0 0,-5.83204"
           id="path4416"
           style="font-size:8px;font-variant:normal;font-stretch:normal;text-align:start;text-anchor:start;font-family:Sans;-inkscape-font-specification:Sans" />
        <path
           d="m 561.86722,376.173 0.79297,0 0,3.54297 c 0,0.625 0.11328,1.07552 0.33984,1.35157 0.22656,0.27343 0.59375,0.41015 1.10156,0.41015 0.50521,0 0.87109,-0.13672 1.09766,-0.41015 0.22656,-0.27605 0.33984,-0.72657 0.33984,-1.35157 l 0,-3.54297 0.79297,0 0,3.64063 c 0,0.76042 -0.18881,1.33464 -0.5664,1.72266 -0.37501,0.38802 -0.9297,0.58203 -1.66407,0.58203 -0.73698,0 -1.29427,-0.19401 -1.67187,-0.58203 -0.375,-0.38802 -0.5625,-0.96224 -0.5625,-1.72266 l 0,-3.64063"
           id="path4418"
           style="font-size:8px;font-variant:normal;font-stretch:normal;text-align:start;text-anchor:start;font-family:Sans;-inkscape-font-specification:Sans" />
        <path
           d="m 571.42191,379.36441 0,2.64063 -0.71875,0 0,-2.61719 c -10e-6,-0.41406 -0.0807,-0.72396 -0.24219,-0.92969 -0.16146,-0.20573 -0.40365,-0.30859 -0.72656,-0.30859 -0.38803,0 -0.69402,0.1237 -0.91797,0.37109 -0.22396,0.2474 -0.33594,0.58464 -0.33594,1.01172 l 0,2.47266 -0.72266,0 0,-4.375 0.72266,0 0,0.67968 c 0.17187,-0.26301 0.3737,-0.45963 0.60547,-0.58984 0.23437,-0.1302 0.5039,-0.19531 0.80859,-0.19531 0.5026,0 0.88281,0.15625 1.14063,0.46875 0.25781,0.3099 0.38671,0.76693 0.38672,1.37109"
           id="path4420"
           style="font-size:8px;font-variant:normal;font-stretch:normal;text-align:start;text-anchor:start;font-family:Sans;-inkscape-font-specification:Sans" />
        <path
           d="m 572.86331,377.63004 0.71875,0 0,4.375 -0.71875,0 0,-4.375 m 0,-1.70313 0.71875,0 0,0.91016 -0.71875,0 0,-0.91016"
           id="path4422"
           style="font-size:8px;font-variant:normal;font-stretch:normal;text-align:start;text-anchor:start;font-family:Sans;-inkscape-font-specification:Sans" />
        <path
           d="m 575.793,376.38785 0,1.24219 1.48047,0 0,0.55859 -1.48047,0 0,2.375 c 0,0.35677 0.0482,0.58594 0.14453,0.6875 0.099,0.10156 0.29818,0.15234 0.59766,0.15234 l 0.73828,0 0,0.60157 -0.73828,0 c -0.55469,0 -0.9375,-0.10287 -1.14844,-0.3086 -0.21094,-0.20833 -0.31641,-0.58593 -0.31641,-1.13281 l 0,-2.375 -0.52734,0 0,-0.55859 0.52734,0 0,-1.24219 0.72266,0"
           id="path4424"
           style="font-size:8px;font-variant:normal;font-stretch:normal;text-align:start;text-anchor:start;font-family:Sans;-inkscape-font-specification:Sans" />
      </g>
      <path
         d="m 672.50002,502.00503 20,0 0,20 -20,0"
         id="path3068"
         style="fill:none;stroke:#000000;stroke-width:1px;stroke-linecap:butt;stroke-linejoin:miter;stroke-opacity:1;marker-end:url(#marker7539)" />
      <path
         d="m 672.50002,482.00503 40,0 0,60 -40,0"
         id="path3068-6"
         style="fill:none;stroke:#000000;stroke-width:1px;stroke-linecap:butt;stroke-linejoin:miter;stroke-opacity:1;marker-end:url(#marker7539)" />
      <path
         d="m 672.50002,462.00503 60,0 0,120 -60,0"
         id="path3068-6-3"
         style="fill:none;stroke:#000000;stroke-width:1px;stroke-linecap:butt;stroke-linejoin:miter;stroke-opacity:1;marker-end:url(#marker7539)" />
    </g>
  </g>
</svg>
